<svg xmlns="http://www.w3.org/2000/svg" viewBox="0 0 448.44794 487.85841"><title>ave_borsch</title><path d="M479.13574,217.44629l-.97852.20459.97852-.20507a51.5006,51.5006,0,0,0-7.73487-18.6504,9.70012,9.70012,0,0,0-.77978-1.001c5.17675-13.293,6.69726-24.98535,4.78613-36.74756-1.895-11.66553-8.14356-21.8418-18.57227-30.24561a10.92316,10.92316,0,0,0-1.65185-1.09912,79.06863,79.06863,0,0,0-3.8042-24.98144C447.085,91.15479,437.6206,81.53711,423.248,76.13526a16.79824,16.79824,0,0,0-3.08691-.87988,80.52724,80.52724,0,0,0-10.33594-23.36133c-8.60987-13.41455-21.791-20.50537-38.11963-20.50537l-.29834.00048a14.92823,14.92823,0,0,0-6.376,1.24317,65.4429,65.4429,0,0,0-18.76416-15.04444c-11.14746-6.0166-23.69531-5.99023-37.29638.07862a11.00008,11.00008,0,0,0-4.00928,17.03613l.37012.45264c.34033.41845.63281.77392.93164,1.1167l.61865.709c5.23193,5.99707,10.17383,11.66113,14.10644,17.88965.103.16357.20948.3252.31739.48633-.81983,1.10058-1.49317,2.09521-2.09424,3.09131a28.53128,28.53128,0,0,1-7.7627,8.13476c-1.62841,1.19873-3.2373,2.42383-4.895,3.687L304.356,71.94043a10.97508,10.97508,0,0,0-4.3418,9.43213c.0166.27637.044.55323.08252.82862a125.35183,125.35183,0,0,0-44.08545-7.77686c-16.61132,0-31.23779,4.77441-44.79736,9.91748a11.541,11.541,0,0,0,.59131-2.87891,11.65783,11.65783,0,0,0-5.42334-10.605c-.6294-.42773-1.30859-.937-2.05029-1.49316-.51758-.38769-1.03516-.77539-1.5586-1.15576-5.231-3.7959-8.33154-6.91943-10.36816-10.44434a26.94092,26.94092,0,0,0-1.62158-2.46728,167.0694,167.0694,0,0,1,14.11962-17.94776c.4585-.51757.90918-1.042,1.39991-1.61425l.70556-.82129a10.99938,10.99938,0,0,0-3.8081-17.21826c-12.80811-5.772-24.65088-6.14307-35.20069-1.104a62.59278,62.59278,0,0,0-20.90234,16.062,12.92154,12.92154,0,0,0-5.47607-1.26953c-15.749-.34765-28.228,5.47754-37.04737,17.27686A75.5043,75.5043,0,0,0,91.9165,75.272a14.79678,14.79678,0,0,0-2.48877.65039C75.5913,80.91748,66.18066,89.90284,61.457,102.62793a73.93412,73.93412,0,0,0-4.5166,27.27393,12.60441,12.60441,0,0,0-2.29052,1.46533c-10.25586,8.30567-16.39356,18.80908-18.24268,31.21924-1.35449,9.09766.13379,17.52832,1.582,23.85645a85.58034,85.58034,0,0,0,3.36963,11.31787,10.62209,10.62209,0,0,0-1.06494,1.47119c-7.937,13.313-10.29492,26.06982-7.209,39a72.09712,72.09712,0,0,0,16.70362,31.19824,12.53683,12.53683,0,0,0-.70117,1.68945,18.89175,18.89175,0,0,0-.52,1.96,57.7913,57.7913,0,0,0,.68847,27.0586c2.46582,9.32226,7.65772,17.39453,16.33936,25.40429a77.44723,77.44723,0,0,0,20.69531,14.04395,10.8075,10.8075,0,0,0-.35645,2.748l-.00341.123a15.632,15.632,0,0,0,.08838,2.457,56.77093,56.77093,0,0,0,1.63671,8.56445c4.25245,15.207,12.73633,26.24512,25.21534,32.80859a80.07348,80.07348,0,0,0,30.13086,9.06153,12.86022,12.86022,0,0,0,1.333,4.71093c6.68067,13.5459,16.41553,22.80469,28.93457,27.52149a54.2526,54.2526,0,0,0,19.625,3.1914c1.72559,0,3.52735-.05078,5.67139-.1582a72.97284,72.97284,0,0,0,29.51856-7.63769,33.89149,33.89149,0,0,0,7.75927-5.208,51.695,51.695,0,0,0,8.09033-1.28809c7.38868-1.7373,9.959-7.55469,9.915-12.01074-.0542-5.125-3.60156-11.0166-11.23974-11.83691-2.29932-.33008-4.669-.6709-6.87793-1.14161-.63867-13.25683-3.44483-24.60547-8.57422-34.68066a48.14855,48.14855,0,0,0-5.83154-8.89258c4.64892,1.1875,9.45605,2.21973,14.335,3.07715a128.17361,128.17361,0,0,0,22.10547,1.916,133.31768,133.31768,0,0,0,32.21484-3.99317,50.10138,50.10138,0,0,0-6.354,10.55957,86.09364,86.09364,0,0,0-6.98731,27.89551c-.13428,1.5-.227,2.81152-.28662,4.06641-.896.23144-1.79492.4248-2.72949.585-.876.15136-1.75537.27734-2.72217.416-.67041.09668-1.34082.19239-2.02051.29785a11.9466,11.9466,0,0,0-10.55322,10.66114c-.43994,4.39257,1.5625,10.36132,8.65186,12.72363a22.71849,22.71849,0,0,0,2.88183.75977,59.2547,59.2547,0,0,0,6.2334.87011c.19824.18067.40283.35742.61816.52442a45.429,45.429,0,0,0,8.76075,5.416c11.61377,5.44824,24.14794,7.6836,38.42578,6.86426a48.49829,48.49829,0,0,0,34.11621-16.06152,54.80555,54.80555,0,0,0,10.50928-16.25293,10.9082,10.9082,0,0,0,.752-2.91016,76.942,76.942,0,0,0,30.38623-9.291c14.90918-8.13574,23.77685-21.90722,26.356-40.93164a12.8048,12.8048,0,0,0-.38038-5.459,74.31937,74.31937,0,0,0,29.52979-23.74121c8.69092-11.48145,11.54248-25.79,8.47412-42.5293a13.71607,13.71607,0,0,0-1.31933-3.91211,82.99736,82.99736,0,0,0,13.41992-21.272A49.023,49.023,0,0,0,479.13574,217.44629ZM376.65966,284.11084a48.57154,48.57154,0,0,0,.94629,10.28809,78.36215,78.36215,0,0,0,13.31689,30.01758,56.90737,56.90737,0,0,1-3.80224,4.79883,13.18481,13.18481,0,0,0-4.09961,8.10254c-.13574.01855-.271.03808-.40625.05761-.61817-1.71-1.231-3.23828-1.65967-4.28906-.27832-.68262-.56689-1.3623-.856-2.043a29.03145,29.03145,0,0,1-1.85449-5.13086,115.25625,115.25625,0,0,1-1.5039-12.2666c-.12842-1.48242-.24854-2.96582-.37061-4.47852l-.17627-2.16992a11.02333,11.02333,0,0,0-5.26709-8.52343,10.90659,10.90659,0,0,0-3.751-1.40137A149.65425,149.65425,0,0,0,376.65966,284.11084ZM417.3496,159.93116q3.76026.03148,7.86768-.32325l.27832-.0249c.31543.86524.623,1.8003.94971,2.8833.00732.042.01513.0835.02294.125a25.63063,25.63063,0,0,1-8.76074-2.4707Q417.52807,160.02466,417.3496,159.93116Zm2.79737,48.68408a79.19019,79.19019,0,0,0,13.32519,4.895c.061,1.94043-.00537,3.90137-.08642,5.71533-.01075.124-.02.248-.02735.37354-4.02344-1.9292-7.8291-4.98536-11.90576-9.55127C421.01952,209.5625,420.58105,209.0835,420.147,208.61524ZM403.83251,114.77a22.32721,22.32721,0,0,1-9.13183,1.11719c-1.89112-.20361-3.72168-.34473-5.5586-.48633-1.375-.106-2.75049-.21142-4.12353-.34863-.49463-.04932-.97071-.07227-1.4292-.07227q-.37866,0-.74121.02051a70.3475,70.3475,0,0,0,17.83789-6.103c.79785,1.01123,1.59228,2.10449,2.42529,3.25048l.07959.10791a14.25393,14.25393,0,0,0,1.793,2.17969C404.58935,114.54346,404.20654,114.65479,403.83251,114.77Zm-29.69189,4.89356a11.55582,11.55582,0,0,0-1.08545,11.7041c5.291,12.17578,13.33887,20.51367,23.92187,24.78613a10.84565,10.84565,0,0,0-3.21045,3.38965,11.22119,11.22119,0,0,0-1.76464,5.57031l-.00538.11231a18.56123,18.56123,0,0,0,.02881,2.50683c.86377,10.04541,3.74561,18.27393,8.81153,25.15577a47.89371,47.89371,0,0,0,7.80029,8.33105,10.411,10.411,0,0,0-1.17139.04346,10.87931,10.87931,0,0,0-8.21093,4.93408,11.68484,11.68484,0,0,0-1.46485,2.83447,18.75822,18.75822,0,0,0-.5625,1.856q-.69286,2.84253-1.11719,5.61084.011-.97924.01123-1.96387c0-18.86181-6.53417-34.21386-12.85253-49.06006l-1.32178-3.11181a139.63012,139.63012,0,0,0-30.021-44.53174l-.93213-.93359a165.80208,165.80208,0,0,0-24.36328-20.84913A39.00216,39.00216,0,0,0,338.687,94.22608a10.70766,10.70766,0,0,0,.74317,2.8081,11.4675,11.4675,0,0,0,2.26416,3.6958c10.92334,11.916,23.82764,16.91846,38.27051,14.78028A11.47284,11.47284,0,0,0,374.14062,119.66358ZM395.5415,228.32569a46.96515,46.96515,0,0,0,8.54443,24.24512,11.00441,11.00441,0,0,0-7.10205-3.47364q-.47314-.04174-.9458-.0415a10.99651,10.99651,0,0,0-4.0708.78564A133.35063,133.35063,0,0,0,395.5415,228.32569Zm11.46386,28.05957a80.7586,80.7586,0,0,0,15.32178,14.333c-.37695,1.31738-.9165,2.74609-1.56445,4.4248-.23779.61621-.47559,1.23242-.71,1.85645a15.5669,15.5669,0,0,0-.55323,1.77734q-.79394-.88476-1.58837-1.69434a31.57789,31.57789,0,0,1-6.5459-9.7041c-1.15576-2.65722-2.35108-5.29785-3.59668-8.04785l-1.709-3.78418q-.21314-.47461-.46777-.92187Q406.27515,255.51221,407.00536,256.38526Zm-70.667,77.6416a82.75693,82.75693,0,0,0,2.96045,34.63965,46.21672,46.21672,0,0,1-4.14795,2.51953c-1.00293.53516-2.05517,1.15234-3.21728,1.88769a12.6433,12.6433,0,0,0-3.80518,3.71387c-.05908-1.56738-.15381-3.09668-.24756-4.61523-.15136-2.44531-.29443-4.75489-.26025-6.917.05469-3.55762,1.04492-7.48731,2.09326-11.64844l.02783-.11035c.269-1.06934.53809-2.13965.79444-3.21094.30322-1.26856.623-2.53223.9707-3.90625l.52685-2.09082a11.04236,11.04236,0,0,0-2.96093-10.51367,10.46072,10.46072,0,0,0-1.40723-1.15723c3.59912-2.35937,7.21338-4.94336,10.78906-7.71191A50.18318,50.18318,0,0,0,336.33837,334.02686Zm-153.28027-.2666a11.04648,11.04648,0,0,0-2.98438,10.48828c.2793,1.13477.54688,2.23535.80811,3.31152l.05127.21094c.61377,2.53125,1.19678,4.93457,1.82178,7.3291a43.00076,43.00076,0,0,1,1.45263,16.44629,45.67978,45.67978,0,0,0-.32715,5.13477,13.00626,13.00626,0,0,0-3.02832-3.13184,14.88267,14.88267,0,0,0-2.00439-1.29492c-2.0127-1.10742-4.12354-2.28809-6.03711-3.55859a94.82655,94.82655,0,0,0,3.57861-22.45508A57.93807,57.93807,0,0,0,174.084,326.523a115.51762,115.51762,0,0,0,9.856,6.46094A11.08943,11.08943,0,0,0,183.0581,333.76026ZM135.352,282.27393a139.88971,139.88971,0,0,0,9.5083,14.69336,10.71647,10.71647,0,0,0-2.81445.92578,11.05637,11.05637,0,0,0-6.1123,8.95606l-.7876,9.40332c-.52051,6.18554-1.29,11.17773-3.354,15.43652a55.02982,55.02982,0,0,0-2.35254,5.67187c-.12207-.01757-.24414-.03515-.36573-.05175a13.12489,13.12489,0,0,0-3.78222-7.73828,61.18259,61.18259,0,0,1-4.0835-5.123,90.33947,90.33947,0,0,0,10.66357-20.53906A52.6658,52.6658,0,0,0,135.352,282.27393Zm-28.873-27.6416a10.77339,10.77339,0,0,0-.56885,1.12109l-1.06592,2.43555c-.76611,1.74805-1.50635,3.43848-2.23389,5.13379-2.17627,5.07031-4.74121,10.29492-8.74121,14.15527-.40673.39258-.81054.80274-1.21582,1.23535a14.61829,14.61829,0,0,0-.9707-2.65234c-.21-.58008-.42676-1.1582-.644-1.73731-.48047-1.2832-.93848-2.50683-1.24658-3.59082A73.29543,73.29543,0,0,0,106.479,254.63233Zm21.52881-139.63672-2.20069.19775q-2.49609.22266-4.999.45557c-4.61475.437-8.34863.50488-11.57422-.59082-.66895-.22754-1.36377-.4375-2.0957-.63379a14.23785,14.23785,0,0,0,1.89843-2.29639c.7168-1.00683,1.54053-2.14746,2.37452-3.21191a64.013,64.013,0,0,0,17.251,6.04053Q128.33545,114.9668,128.00781,114.99561ZM108.95556,251.125a45.31083,45.31083,0,0,0,7.688-24.20214,129.00625,129.00625,0,0,0,5.34424,24.0166,10.974,10.974,0,0,0-14.209,1.90576Q108.37865,251.99487,108.95556,251.125Zm6.94531-36.59033q0,.78955.01221,1.58252-.52662-3.32812-1.4209-6.80908a10.99811,10.99811,0,0,0-7.92969-7.92188,10.85513,10.85513,0,0,0-2.68408-.33691c-.06738,0-.13428.001-.20166.00195,9.6084-8.1914,15.26953-19.71289,16.45166-33.60644a11.714,11.714,0,0,0-5.00635-11.15137c-.042-.02783-.084-.05566-.12646-.08349,10.4834-4.17334,18.48486-12.3501,23.77978-24.28516a11.65774,11.65774,0,0,0-1.93359-13.68555,10.97848,10.97848,0,0,0-4.15479-2.65332q2.45289.2981,4.94922.397c9.72754.38575,19.02149-3.0415,27.583-10.17724a30.20682,30.20682,0,0,0,6.64063-7.14453,10.93815,10.93815,0,0,0,1.58349-4.39551,37.25429,37.25429,0,0,0,11.3125,1.90332c-38.62451,22.00586-54.898,56.86914-57.83984,63.82519A139.24077,139.24077,0,0,0,115.90087,214.53467Zm-37.30908-.95947a78.05957,78.05957,0,0,0,13.53076-5.12305c-.33984.36719-.67529.73242-1.00879,1.09961-3.55078,3.91358-7.50781,7.8291-12.40039,10.03662-.00537-.93506-.041-1.78759-.07568-2.481C78.58154,215.98829,78.5664,214.80323,78.59179,213.5752ZM85.6582,162.54c.313-1.04345.61377-2.0415.93115-2.96142a67.75211,67.75211,0,0,0,8.01806.38232,23.4342,23.4342,0,0,1-5.855,2.19531c-.96875.13135-1.94043.24659-3.0039.37256Z" transform="translate(-31.77603 -13.0708)" style="fill:#fff"/><path d="M177.10107,472.98389a11.04145,11.04145,0,0,0,.21-2.14746V460.34815a10.95639,10.95639,0,0,0-.53369-3.39356,10.93152,10.93152,0,0,0,2.70019-7.21972v-7.28614a11.01245,11.01245,0,0,0-11-11H140.90624a10.65309,10.65309,0,0,0-1.4917.11231,10.64087,10.64087,0,0,0-1.49121-.11231H126.30468a11.05788,11.05788,0,0,0-8.03906,3.49317,11.05792,11.05792,0,0,0-8.03906-3.49317H95.02782a10.96782,10.96782,0,0,0-6.5581,2.18067,11.05607,11.05607,0,0,0-7.25879-2.74512H77.81982a10.97817,10.97817,0,0,0-10.45166,7.57129L54.37988,478.04346a11.03337,11.03337,0,0,0-6.77832,10.15918v.502a11.01245,11.01245,0,0,0,11,11H69.46679a10.9722,10.9722,0,0,0,8.35254-3.84082,10.97472,10.97472,0,0,0,8.353,3.84082h15.10449a11.007,11.007,0,0,0,7.28418-2.77246,10.96006,10.96006,0,0,0,8.48,3.99707h.43945a11.01147,11.01147,0,0,0,10.38623-7.37695l2.05274-5.88379c-.00879.17774-.01319.35547-.01319.53418v.502a11.01245,11.01245,0,0,0,11,11h27.57129a11.06891,11.06891,0,0,0,10.74121-8.62793l1.60157-7.2539a10.99747,10.99747,0,0,0-3.71924-10.83887Z" transform="translate(-31.77603 -13.0708)" style="fill:#fff"/><path d="M452.10253,431.44873H437.375a11.01051,11.01051,0,0,0-8.22754,3.69825,11.01048,11.01048,0,0,0-8.22754-3.69825H406.19238c-.042,0-.083.001-.13672.00391a10.935,10.935,0,0,0-3.81934-.69433h-.50293a10.89542,10.89542,0,0,0-4.38818.9121c-10.96485-2.873-20.877-1.75-29.46045,3.34668a36.0002,36.0002,0,0,0-3.88526,2.67383,11.04342,11.04342,0,0,0-10.34228-7.24707h-.50293a10.95423,10.95423,0,0,0-3.64111.61914,30.1306,30.1306,0,0,0-5.37159-.49316,25.201,25.201,0,0,0-12.63232,3.24609,23.94487,23.94487,0,0,0-7.80664,7.03125c-.27979-.39746-.55664-.76367-.83984-1.1123a21.937,21.937,0,0,0-8.249-6.14649,27.01272,27.01272,0,0,0-11.0122-2.13965H287.58691a11.05014,11.05014,0,0,0-9.36573,5.251,35.53137,35.53137,0,0,0-34.07373-3.958,36.11544,36.11544,0,0,0-11.35839,7.39063c-.56543.543-1.12452,1.11914-1.67041,1.72265a22.11029,22.11029,0,0,0-3.88526-4.43652,23.57049,23.57049,0,0,0-7.91748-4.50683,27.82144,27.82144,0,0,0-9.07324-1.4629H195.13818a11.01245,11.01245,0,0,0-11,11v.53418a11.05449,11.05449,0,0,0,4.93017,9.17481v26.87012a11.05446,11.05446,0,0,0-4.93017,9.1748v.502a11.01245,11.01245,0,0,0,11,11h17.30273c5.87842,0,10.646-1.05371,14.57178-3.21777l.16357-.09277a23.70177,23.70177,0,0,0,6.08448-5.05664,36.03815,36.03815,0,0,0,6.40332,4.7705,35.11815,35.11815,0,0,0,17.99609,4.82129A34.5587,34.5587,0,0,0,275.603,496.065c.85791-.51172,1.71875-1.07813,2.56885-1.68946a11.03254,11.03254,0,0,0,9.415,5.3291h14.72754a11.02112,11.02112,0,0,0,8.1958-3.66308,11.08238,11.08238,0,0,0,8.1958,3.66308h6.34277a10.89687,10.89687,0,0,0,4.36524.91114h.53418a10.91961,10.91961,0,0,0,4.28662-.86817,30.0045,30.0045,0,0,0,7.92822.99317,26.03034,26.03034,0,0,0,13.08642-3.207,23.48841,23.48841,0,0,0,6.41114-5.2959,34.13575,34.13575,0,0,0,8.97705,5.75586,35.39576,35.39576,0,0,0,14.42187,2.93554,32.65823,32.65823,0,0,0,13.03565-2.418c.57617-.251,1.16455-.52636,1.75635-.82421a10.85641,10.85641,0,0,0,6.34082,2.01757h14.72753a11.01047,11.01047,0,0,0,8.22754-3.69824,11.0105,11.0105,0,0,0,8.22754,3.69824h14.72754a11.01245,11.01245,0,0,0,11-11v-.502a11.0491,11.0491,0,0,0-4.96191-9.19531v-26.8291a11.04912,11.04912,0,0,0,4.96191-9.19532v-.53418A11.01245,11.01245,0,0,0,452.10253,431.44873Zm-61.8833,44.78321a13.73085,13.73085,0,0,1-4.187.84472,7.42453,7.42453,0,0,1-3.10986-.584,6.55623,6.55623,0,0,1-2.27393-1.77344,10.114,10.114,0,0,1-1.89111-3.49707,17.98706,17.98706,0,0,1-.8169-5.59863,18.77619,18.77619,0,0,1,.86035-5.86816,11.46885,11.46885,0,0,1,1.96827-3.75879,6.88015,6.88015,0,0,1,2.3413-1.85547,5.65922,5.65922,0,0,1,2.57227-.60352,10.01306,10.01306,0,0,1,3.064.55762,5.07788,5.07788,0,0,1,1.74512.95019,11.0123,11.0123,0,0,0,9.63037,8.70313v7.22461a10.9423,10.9423,0,0,0-6.47216,3.06738A8.97953,8.97953,0,0,1,390.21923,476.23194Z" transform="translate(-31.77603 -13.0708)" style="fill:#fff"/><path d="M358.3477,394.04578a43.99107,43.99107,0,0,1-8.45655,13.02386,37.56606,37.56606,0,0,1-26.63064,12.50673c-11.5389.66058-22.6087-.90646-33.12424-5.84075a34.7495,34.7495,0,0,1-6.68761-4.14674c3.96844.01455,7.5573.49582,11.15788.75881a112.78232,112.78232,0,0,0,14.75378.562,18.30739,18.30739,0,0,0,10.7861-4.40548,6.0006,6.0006,0,0,0,.71264-.74426c.06168-.07222.04853-.20827.0885-.40978-2.988.68008-5.94107,1.33314-8.942,1.73387-5.94763.79433-11.77038-.25156-17.59327-1.20653-2.25633-.37-4.47759-.94951-6.72718-1.36718-1.021-.18957-1.38777-.45189-.75939-1.51358,5.27551-8.91323,12.82055-14.47255,23.22121-15.88722a44.52731,44.52731,0,0,1,19.36125,1.836c7.661,2.3789,15.5637,3.256,23.43936,4.37064C354.69224,393.56308,356.44,393.78863,358.3477,394.04578Z" transform="translate(-31.77603 -13.0708)" style="fill:#3d6d38"/><path d="M191.26675,405.80682a17.00187,17.00187,0,0,0,8.85462,4.72254c4.2544.94681,8.56409.39375,12.84234.138,5.07739-.3036,10.14448-.77869,15.6652-1.21494a22.84209,22.84209,0,0,1-5.52963,3.71455,61.72077,61.72077,0,0,1-25.10125,6.46116c-7.07725.35954-14.14751.1883-20.86157-2.34078-10.77078-4.05708-17.95017-11.9638-22.94575-22.09231-.48421-.98175-.21245-1.21734.77107-1.34579,6.75887-.8823,13.54-1.6343,20.23075-2.96222,4.3215-.85771,8.45336-2.49882,12.80281-3.25986,9.2187-1.6129,18.17012-1.31254,26.36586,3.91636a32.00656,32.00656,0,0,1,10.76052,11.3814c.48243.8512.67939,1.28636-.58979,1.56587-6.83568,1.50535-13.69741,2.82528-20.72478,2.85979a51.29385,51.29385,0,0,1-11.52942-1.74623c-.26814-.06073-.5366-.12-.80492-.18Z" transform="translate(-31.77603 -13.0708)" style="fill:#3d6d38"/><path d="M127.369,366.40072a19.33547,19.33547,0,0,0,8.98706,8.69756,71.8049,71.8049,0,0,0,9.68574,3.46821c4.10554,1.25869,8.21759,2.49612,12.32327,3.75436.535.164,1.04873.3972,1.9231.73308a38.63064,38.63064,0,0,1-12.9063,1.56785,68.13645,68.13645,0,0,1-29.401-8.06969c-10.67006-5.61193-16.58843-14.76084-19.7418-26.03567a45.99283,45.99283,0,0,1-1.30892-6.91542,10.42391,10.42391,0,0,1-.00651-1.20538c6.1202,1.41861,12.13749,2.80155,18.1487,4.21043,4.81977,1.12964,9.8026,1.0139,14.64606,1.94633,10.59632,2.03991,19.66819,6.47019,25.36138,16.19655a34.366,34.366,0,0,1,4.00761,10.36524c.4,1.90586.3372,1.96669-1.51566,1.70613a115.61408,115.61408,0,0,1-15.28157-3.24317,46.04239,46.04239,0,0,1-13.305-6.66017c-.42147-.28641-.84813-.56521-1.27239-.84754Z" transform="translate(-31.77603 -13.0708)" style="fill:#3d6d38"/><path d="M352.01062,383.106a15.53083,15.53083,0,0,1,3.92245-1.50362c6.14953-1.8005,12.31679-3.54614,18.3045-5.85026a19.50891,19.50891,0,0,0,10.485-9.36878c-.44318-.44806-.70992-.09852-.95119.0863-7.898,6.05033-17.17277,8.40006-26.74091,9.9634-.79083.12921-1.58133.2646-2.376.36509-1.96677.24879-2.05706.22105-1.59983-1.79254q4.0892-18.00876,21.4575-24.35933a51.48222,51.48222,0,0,1,14.09459-2.86058c7.30033-.51511,14.30336-2.54161,21.38159-4.18635,1.28144-.29778,2.57536-.56237,3.829-.95315,1.00406-.313,1.46818-.31368,1.29224.984-1.91033,14.08975-7.79286,25.69964-20.72518,32.75585a65.22705,65.22705,0,0,1-31.74623,8.2371A34.70854,34.70854,0,0,1,352.01062,383.106Z" transform="translate(-31.77603 -13.0708)" style="fill:#3d6d38"/><path d="M80.3032,307.95356A20.431,20.431,0,0,0,87.677,319.81449c4.37931,3.70729,8.93717,7.18405,13.51454,10.63836,1.09167.82386,2.13447,1.71248,3.42573,2.75351a8.39931,8.39931,0,0,1-4.17907-.34018c-10.58612-2.53364-19.4757-8.10275-27.39307-15.4082-6.08208-5.61206-11.00234-11.95744-13.165-20.13345a46.64827,46.64827,0,0,1-.56359-21.95318,8.05087,8.05087,0,0,1,.21582-.82957,4.52642,4.52642,0,0,1,.29294-.56647c2.55748,1.77263,5.09528,3.52121,7.62229,5.28528A146.11745,146.11745,0,0,0,84.822,289.65909c7.81445,3.98,14.34965,9.4631,18.31525,17.52165a32.98,32.98,0,0,1,3.01354,19.06685c-.136,1.08622-.34277,1.554-1.55441.84432A131.4503,131.4503,0,0,1,90.4,317.7294c-3.91032-3.029-6.78971-6.95556-9.71811-10.85027C80.1098,306.78643,80.0445,306.97173,80.3032,307.95356Z" transform="translate(-31.77603 -13.0708)" style="fill:#3d6d38"/><path d="M431.55651,306.55656c-5.30741,8.55869-13.20644,14.18115-21.68893,19.14228-.34618.20245-.69773.39567-1.04479.5966-2.8616,1.65637-2.86513,1.65683-3.08555-1.72357-.88394-13.55985,4.879-23.79575,15.75457-31.46578a50.46834,50.46834,0,0,1,7.71085-4.48954c7.889-3.6894,14.75664-8.99064,21.88817-13.87106,1.07039-.73252,1.49063-.64883,1.72235.61562,2.22414,12.136,1.20687,23.829-6.425,33.91075-8.80441,11.63072-20.211,19.85284-34.5508,23.55228a14.9053,14.9053,0,0,1-4.39951.5787,32.4814,32.4814,0,0,1,4.18216-3.50017c4.84-3.67322,9.73324-7.28238,14.2156-11.39941a19.79821,19.79821,0,0,0,6.078-10.91426C432.17119,306.73915,432.14374,306.65981,431.55651,306.55656Z" transform="translate(-31.77603 -13.0708)" style="fill:#3d6d38"/><path d="M440.44671,272.80845c3.18852-5.08993,6.3913-10.171,9.56082-15.27273,2.31379-3.72435,4.25892-7.58453,4.49678-12.09978a10.12038,10.12038,0,0,0-.69622-4.56665c-.34042,1.10452-.70068,2.20339-1.01815,3.31447-2.24049,7.84242-6.93738,14.255-11.92282,20.49894-.75091.94047-1.59614,1.81053-2.29282,2.78793-.7285,1.022-1.08687.79222-1.57747-.19692A30.84219,30.84219,0,0,1,433.79,250.28388c.87894-9.00488,5.13731-16.48221,11.17734-22.90274,5.92511-6.29828,10.84221-13.324,15.82972-20.32162.46113-.647.91395-1.29995,1.48-2.106a40.772,40.772,0,0,1,6.08332,14.749,38.02261,38.02261,0,0,1-2.65988,23.98422c-4.68336,10.41738-11.00732,19.53737-20.22751,26.46691A16.69558,16.69558,0,0,1,440.44671,272.80845Z" transform="translate(-31.77603 -13.0708)" style="fill:#3d6d38"/><path d="M74.29715,268.37075A135.19925,135.19925,0,0,1,64.442,255.402c-3.02393-4.53374-4.65035-9.6399-6.36423-15.21744a19.2005,19.2005,0,0,0,1.7344,13.28072c2.8673,5.48752,6.3164,10.62628,9.67136,15.82.76351,1.18192,1.4568,2.4092,2.40067,3.9785a36.92379,36.92379,0,0,1-10.54145-7.5901c-8.47886-8.45287-14.77662-18.29809-17.56837-29.99559-2.60946-10.9337.14905-21.069,5.95789-30.813,1.15434,1.63464,2.18317,3.02681,3.1447,4.464,4.983,7.44786,10.92782,14.11556,16.67079,20.96515,5.608,6.68861,9.038,14.42795,8.88055,23.42564C78.33689,258.947,76.661,265.11214,74.29715,268.37075Z" transform="translate(-31.77603 -13.0708)" style="fill:#3d6d38"/><path d="M60.38587,208.73247c-6.26428-7.12821-9.60517-15.66191-11.68375-24.74363C47.21425,177.488,46.28305,170.88569,47.278,164.207c1.48878-9.99354,6.49025-17.97855,14.28508-24.29111a4.3507,4.3507,0,0,1,.63132-.34818c1.68679,5.60644,3.3714,11.11654,4.9986,16.64354,1.20152,4.08108,3.26306,7.81256,4.69874,11.79616,2.85138,7.91175,4.19191,15.94683,1.87334,24.25163-1.50242,5.38149-5.22929,11.0864-8.80726,13.59871-4.07639-7.94012-6.4476-19.88085-6.10976-31.11766a14.66588,14.66588,0,0,0-2.62552,7.14524c-.6036,3.957.41764,7.75216,1.2314,11.55324,1.04217,4.868,2.19383,9.71251,3.29831,14.56715C60.85111,208.35941,61.04359,208.76025,60.38587,208.73247Z" transform="translate(-31.77603 -13.0708)" style="fill:#3d6d38"/><path d="M449.92292,139.366c7.762,6.25542,13.05214,13.812,14.61713,23.44467,1.964,12.08824-.86279,23.55114-5.65636,34.59784a33.4784,33.4784,0,0,1-7.77819,11.52541c.2152-1.06451.40052-2.13608.65049-3.19239,1.4499-6.12652,3.09332-12.21237,4.04594-18.44524a17.163,17.163,0,0,0-2.47032-12.27554c1.15319,10.93046-2.30059,20.89444-6.10413,30.89191a14.41122,14.41122,0,0,1-4.24051-4.31274c-5.11251-6.97331-6.70738-14.78665-5.4528-23.27294a48.86577,48.86577,0,0,1,3.958-13.46481c3.55585-7.67768,5.54183-15.8652,7.94027-23.92072C449.56241,140.50482,449.703,140.07133,449.92292,139.366Z" transform="translate(-31.77603 -13.0708)" style="fill:#3d6d38"/><path d="M392.83746,66.52247c6.94373,7.37269,10.06147,16.53007,12.98137,25.80525.42961,1.36474.0316,1.5585-1.17317,1.4835a25.09465,25.09465,0,0,1-19.39712-10.55994,39.58984,39.58984,0,0,1-6.84385-14.69683c-1.95677-8.34912-5.17985-16.23452-8.33428-24.15575-.78916-1.98156-.79176-1.99787,1.38626-2.00941,12.46609-.066,22.28373,4.82351,29.101,15.4464a66.20916,66.20916,0,0,1,10.5693,29.111c.05414.51269.09071,1.02954.09479,1.54479.01227,1.54742.00445,3.095.00445,4.72143-.82169-.09141-.85233-.76889-1.06325-1.21606-2.56321-5.43379-4.88271-10.98-7.61195-16.33821-2.01322-3.95241-4.75742-7.13293-8.93194-8.89442A7.93971,7.93971,0,0,0,392.83746,66.52247Z" transform="translate(-31.77603 -13.0708)" style="fill:#3d6d38"/><path d="M118.87983,67.02421c-.79131-.41323-1.29759.12194-1.80583.40664a16.54356,16.54356,0,0,0-6.51728,6.43726c-2.84872,5.10293-5.14706,10.46769-7.51826,15.79826a30.48188,30.48188,0,0,1-1.88171,3.59995,38.87616,38.87616,0,0,1,1.26453-14.70423,64.44337,64.44337,0,0,1,10.954-23.31525c6.97388-9.33,16.58032-13.10162,28.00813-12.865,1.45577.03014,1.22633.60373.84149,1.54488-2.2511,5.50515-4.54582,11.001-6.36155,16.66494-1.5,4.679-2.30551,9.57256-4.24678,14.12211-2.87381,6.73505-6.80546,12.60681-13.47921,16.16073a24.77136,24.77136,0,0,1-10.83894,2.95042c-1.25294.04724-1.40621-.34314-1.06013-1.43184,2.85387-8.97766,5.86521-17.86993,12.52787-24.93308C118.83245,67.38971,118.82428,67.24917,118.87983,67.02421Z" transform="translate(-31.77603 -13.0708)" style="fill:#3d6d38"/><path d="M94.42577,85.98971c-.20893,6.34076-.47342,12.46179-.59164,18.58563-.08738,4.52681.78007,9.018.62151,13.55957-.27139,7.77334-1.81277,15.13052-6.86823,21.34546a26.75914,26.75914,0,0,1-9.70842,7.49952c-1.37841.63452-1.68147.28215-1.70085-1.12955-.134-9.76167-.21563-19.50648,4.351-28.759a5.403,5.403,0,0,0-2.59445,2.08494c-3.27915,3.97017-3.97685,8.78579-4.48338,13.65553-.49191,4.72917-.92052,9.46491-1.39129,14.19633-.06158.61883-.2085,1.22916-.37159,2.162A39.43749,39.43749,0,0,1,68.391,136.58546,64.44807,64.44807,0,0,1,71.7598,106.4557c3.76628-10.147,11.33833-16.55722,21.39311-20.18717A10.4659,10.4659,0,0,1,94.42577,85.98971Z" transform="translate(-31.77603 -13.0708)" style="fill:#3d6d38"/><path d="M431.99432,117.23817c1.14454,3.70386,2.59742,7.26208,3.13989,11.075a97.95051,97.95051,0,0,1,.71245,18.18558c-.07066,1.5926-.99949.72705-1.47668.50906a26.59483,26.59483,0,0,1-14.58422-16.07319,44.20547,44.20547,0,0,1-1.93193-19.18181c.81093-8.03861.06381-16.03614-.17283-24.04983-.05561-1.88254-.091-1.93907,1.68755-1.2706C429.821,90.36083,437.45918,97.22573,440.88208,108.04c3.90534,12.33854,4.52149,24.85771.98053,37.433a16.45732,16.45732,0,0,1-1.37824,3.28547,46.245,46.245,0,0,1-1.01079-7.73644,141.55158,141.55158,0,0,0-1.74417-14.15621A15.8683,15.8683,0,0,0,431.99432,117.23817Z" transform="translate(-31.77603 -13.0708)" style="fill:#3d6d38"/><path d="M313.44407,27.71167c9.245-4.12646,18.58945-5.30129,27.58805-.44408A54.53665,54.53665,0,0,1,366.706,57.06335a13.22633,13.22633,0,0,1,.45016,1.65343c.033.14231-.04346.31006-.01235.12453-2.65514-2.50191-5.489-5.07092-8.20344-7.76031a69.28868,69.28868,0,0,0-7.41869-6.89742,12.91714,12.91714,0,0,0-9.309-2.67284c8.74539,4.05923,14.40148,11.33117,19.959,18.72735.81639,1.08647.61316,1.47084-.58219,1.83662a23.96877,23.96877,0,0,1-22.71063-4.00544,35.095,35.095,0,0,1-8.59959-9.07183c-4.554-7.21161-10.16175-13.56307-15.73523-19.95483C314.20912,28.65847,313.8939,28.25711,313.44407,27.71167Z" transform="translate(-31.77603 -13.0708)" style="fill:#3d6d38"/><path d="M169.76147,41.53193a13.33764,13.33764,0,0,0-10.219,3.44538c-4.44827,3.813-8.35792,8.17519-12.3994,12.40174-.62466.65329-1.12212,1.58784-2.54436,1.56414,5.30088-14.53572,14.2511-25.79781,28.1307-32.42532,8.51648-4.06662,17.30718-2.68309,25.94361,1.20715-.75967.88015-1.37933,1.614-2.01576,2.333A178.85965,178.85965,0,0,0,181.592,49.23917c-3.77964,5.66417-8.70926,10.21447-15.23972,12.64716a23.72309,23.72309,0,0,1-16.00348.13229c-.9465-.307-1.31836-.5963-.55423-1.61364C155.36257,52.99176,160.99564,45.66555,169.76147,41.53193Z" transform="translate(-31.77603 -13.0708)" style="fill:#3d6d38"/><path d="M297.711,388.71353c1.19817-6.5303,3.56009-12.22815,5.60027-18.0362a36.64208,36.64208,0,0,0-9.62887,16.367c-1.62,6.05487-1.701,6.03319-6.31591,10.77455a59.20676,59.20676,0,0,1,.21989-9.4665,75.87413,75.87413,0,0,1,6.07433-24.38669c5.35487-11.98524,14.93488-18.92062,27.692-22.34583-.54674,2.18467-1.055,4.14184-1.52514,6.10811-1.37072,5.73187-3.12338,11.41936-3.21574,17.35645-.0658,4.22992.40389,8.46588.53467,12.70219.05462,1.76934-.18091,3.546-.22279,5.32082-.01936.821-.20052,1.22885-1.159,1.21292A34.26742,34.26742,0,0,0,297.711,388.71353Z" transform="translate(-31.77603 -13.0708)" style="fill:#3d6d38"/><path d="M190.74532,341.61912c11.85381,3.18,21.08963,9.359,26.59924,20.18192,4.87688,9.58,6.936,19.94455,7.40957,30.64.06574,1.48466.05494,2.97307.06046,4.45983a3.80052,3.80052,0,0,1-.20673.79546c-1.59674-1.64493-2.89407-3.38292-4.53831-4.78718a2.7798,2.7798,0,0,1-.63195-1.73887,38.48594,38.48594,0,0,0-8.99847-18.81788c-.39483-.437-.62584-1.154-1.5512-1.03386,2.12431,5.57986,4.30183,11.11526,5.42119,16.89393-.29822.364-.50031.18679-.67664.08919a33.327,33.327,0,0,0-16.855-3.97133c-1.16811.01337-1.56868-.3091-1.65874-1.48214a50.22543,50.22543,0,0,1-.00348-9.95714,54.31577,54.31577,0,0,0-1.7269-20.56972C192.49451,348.89649,191.688,345.44893,190.74532,341.61912Z" transform="translate(-31.77603 -13.0708)" style="fill:#3d6d38"/><path d="M154.24859,340.66885c.057,5.99172.48025,11.94559-.40469,18.09a8.08079,8.08079,0,0,1-.81767-.6792,34.23188,34.23188,0,0,0-13.99223-9.386c-1.01288-.38521-1.26045-.7558-.98032-1.85167a54.677,54.677,0,0,1,3.62743-10.35567c2.96615-6.11987,3.85742-12.66625,4.41656-19.31081.25745-3.05955.51242-6.11933.78784-9.40976a41.37044,41.37044,0,0,1,9.91044,9.15057c6.748,8.443,9.09451,18.18472,8.59566,28.80881a80.73284,80.73284,0,0,1-4.444,23.88968c-.15161.419-.33054.82816-.51334,1.2832-.92425-2.0579-1.79158-4.04783-2.715-6.01137a3.032,3.032,0,0,1-.05957-1.8487,38.63426,38.63426,0,0,0-2.56155-20.88715C154.88421,341.64791,154.8451,341.02964,154.24859,340.66885Z" transform="translate(-31.77603 -13.0708)" style="fill:#3d6d38"/><path d="M365.22127,307.89739c.18785,2.29172.35967,4.4973.55117,6.70113a123.57963,123.57963,0,0,0,1.67356,13.461c.643,3.2327,2.08475,6.16739,3.314,9.18162a66.23187,66.23187,0,0,1,3.32811,9.91007c.176.75261.09012,1.11909-.66945,1.40176a34.84473,34.84473,0,0,0-14.77883,9.97122c-.0575.0675-.20078.062-.40246.11773-.88288-5.92547-.44575-11.86368-.3563-18.26357a30.52338,30.52338,0,0,0-2.74319,7.32048,34.47507,34.47507,0,0,0-.81934,13.63215,8.10116,8.10116,0,0,1-.84317,5.4351,30.47185,30.47185,0,0,0-1.67906,4.01681c-.68832-.53582-.73626-1.37281-.97336-2.08366-3.60235-10.79943-5.13844-21.88831-3.59552-33.18355,1.59126-11.6489,7.8814-20.56356,17.34878-27.33888A4.30808,4.30808,0,0,1,365.22127,307.89739Z" transform="translate(-31.77603 -13.0708)" style="fill:#3d6d38"/><path d="M108.757,322.55014c-.20541-2.352-.32815-4.28769-.56314-6.20965a4.10237,4.10237,0,0,1,.5711-2.28391c3.72029-8.195,4.78615-14.07819,3.82282-21.63532-1.86936,5.75092-3.31095,11.34858-6.10651,16.729-.71434-1.51455-1.26655-2.7914-1.90649-4.02269a34.8364,34.8364,0,0,0-8.378-10.37035c-1.01718-.87279-.8627-1.42409-.23516-2.36172a42.04164,42.04164,0,0,1,5.53682-7.00245c5.19685-5.01621,8.41793-11.225,11.21081-17.7325,1.05013-2.44684,2.12734-4.88206,3.2726-7.50685a34.332,34.332,0,0,1,4.48742,7.49151,40.47959,40.47959,0,0,1,1.1013,32.38055A77.14946,77.14946,0,0,1,110.25,320.73863C109.83365,321.26858,109.39326,321.77963,108.757,322.55014Z" transform="translate(-31.77603 -13.0708)" style="fill:#3d6d38"/><path d="M396.01611,260.05564c1.855,4.12719,3.59493,7.90112,5.2526,11.71079a42.70728,42.70728,0,0,0,8.78751,13.02707,53.21969,53.21969,0,0,1,6.20081,7.79535c.52116.77923.63469,1.27866-.19474,1.9981a35.1045,35.1045,0,0,0-10.09244,13.9032,2.931,2.931,0,0,1-.43558.53839c-2.66543-5.173-4.14825-10.66489-5.85408-16.11657-.59417.40475-.41343.96161-.44265,1.43679a35.89119,35.89119,0,0,0,3.576,18.50648,7.251,7.251,0,0,1,.90185,5.07081,28.03125,28.03125,0,0,0-.32248,4.35365c-.74582-.21182-.98132-.84709-1.33637-1.30264a68.50973,68.50973,0,0,1-13.67523-28.74318C386.04173,280.57769,389.23513,270.04017,396.01611,260.05564Z" transform="translate(-31.77603 -13.0708)" style="fill:#3d6d38"/><path d="M431.60153,252.31912c-4.10113-3.8602-6.99988-8.12069-10.32909-12.534a14.02077,14.02077,0,0,0,1.1057,4.40525,29.80955,29.80955,0,0,0,7.63465,12.0865,7.80137,7.80137,0,0,1,2.61306,4.82955,29.76732,29.76732,0,0,0,1.01046,3.81438,66.86843,66.86843,0,0,1-18.20194-15.59108c-8.89208-10.63494-10.73419-22.69134-7.52974-35.83677.06763-.27752.16027-.54964.25518-.81938a3.11762,3.11762,0,0,1,.27233-.42785c1.62648,1.73112,3.25611,3.39325,4.80487,5.12764,4.70206,5.26563,9.946,9.792,16.49677,12.66837a31.80193,31.80193,0,0,1,6.2449,3.92962c.5038.38031,1.01386.67342.54613,1.50786A36.30991,36.30991,0,0,0,431.60153,252.31912Z" transform="translate(-31.77603 -13.0708)" style="fill:#3d6d38"/><path d="M103.82814,212.04362c3.02738,11.78977,2.68226,22.85186-4.04922,33.00128a62.366,62.366,0,0,1-19.543,18.81319c-.45306.27827-.8568.78144-1.63354.55293.94182-3.11383,1.25909-6.29826,3.99491-8.76782,3.99031-3.60189,6.30587-8.37808,7.7825-13.53381.1467-.51221.52633-1.017.04191-1.74691-3.13369,4.06358-5.97465,8.27655-9.95615,11.98474a33.10575,33.10575,0,0,0-2.1433-10.95062A34.73452,34.73452,0,0,0,75.72,235.801c-.56585-.93263-.33116-1.33156.44737-1.89612a35.22935,35.22935,0,0,1,6.5587-4.06872c6.64824-2.86819,11.76023-7.64148,16.52514-12.89332C100.67293,215.37585,102.139,213.849,103.82814,212.04362Z" transform="translate(-31.77603 -13.0708)" style="fill:#3d6d38"/><path d="M69.816,204.19086c1.10039-1.72729,2.11882-3.31022,3.11946-4.9043a3.24715,3.24715,0,0,1,1.70731-1.0818,30.10169,30.10169,0,0,0,12.94838-10.42431,2.37881,2.37881,0,0,0,.78586-1.737c-4.22269,2.60668-8.11383,5.47077-12.82382,7.397a39.85864,39.85864,0,0,0,1.35573-8.5925,35.58231,35.58231,0,0,0-.61306-7.86375c-.24925-1.17156.12321-1.61471,1.21-1.9132,4.16675-1.14437,8.46159-1.438,12.71368-2.01438,3.52131-.47735,6.6603-2.02918,9.82166-3.49616,2.64645-1.22806,5.25431-2.542,7.852-3.87121,1.01995-.52193,1.3779-.50167,1.26528.8215-1.22261,14.365-7.78914,25.12684-20.94979,31.60886A61.25017,61.25017,0,0,1,69.816,204.19086Z" transform="translate(-31.77603 -13.0708)" style="fill:#3d6d38"/><path d="M436.61543,193.46356c-4.9651-2.06449-8.90079-4.92786-13.133-7.61109,1.14219,2.92275,5.6683,7.68883,9.29775,9.8769a11.63149,11.63149,0,0,0,2.56981,1.36916c3.60989,1.06064,5.04054,4.16414,7.06877,7.32086-12.91588-2.91983-24.705-7.14565-32.7329-18.05192-4.24686-5.76951-6.10145-12.49286-6.71016-19.57652a9.42123,9.42123,0,0,1,.00627-1.20358c.00391-.09219.09259-.18075.181-.34143,3.12837,1.52286,6.30282,2.95634,9.37222,4.58735,5.18493,2.75512,10.81763,3.57085,16.53641,4.13927a29.86647,29.86647,0,0,1,6.02915,1.31138c.4378.13823.92971.16131.80264.84595A35.827,35.827,0,0,0,436.61543,193.46356Z" transform="translate(-31.77603 -13.0708)" style="fill:#3d6d38"/><path d="M110.5013,95.70644c.32817-.15224.37722-.17284.42433-.19716,4.45766-2.301,8.75555-.30465,13.121.43244a22.73609,22.73609,0,0,0,10.96427-1.21332c-4.57461-1.03224-9.26478-1.47448-13.72315-3.16216.49316-.84485,1.32909-1.17048,1.97676-1.70273a30.03318,30.03318,0,0,0,7.80029-9.72129c.7587-1.50011,1.45473-1.52079,2.6727-.73329a49.914,49.914,0,0,1,5.2306,3.27941c5.7381,4.82928,12.58223,7.14,19.65027,9.013,1.272.3371,2.535.70843,3.92361,1.09805a19.868,19.868,0,0,1-4.37657,4.55767c-5.81891,4.8501-12.42813,7.94015-20.10124,7.63472C128.12694,104.59625,119.07586,101.22437,110.5013,95.70644Z" transform="translate(-31.77603 -13.0708)" style="fill:#3d6d38"/><path d="M401.41771,95.79538a58.26766,58.26766,0,0,1-22.07571,8.67084c-12.09028,2.14064-21.57922-2.47579-29.5486-11.16951a2.33271,2.33271,0,0,1-.21274-.47721c2.07055-.60141,4.10844-1.23535,6.16907-1.784,6.19278-1.64871,12.037-3.96765,17.04353-8.14311a31.63394,31.63394,0,0,1,6.44833-3.911c.59349-.29069.94287-.34253,1.31771.37023A30.82418,30.82418,0,0,0,391.092,91.475c-4.85674,1.7533-9.63455,2.33167-14.38721,3.19264a25.20249,25.20249,0,0,0,11.0662,1.33971,11.32747,11.32747,0,0,0,3.02758-.5796A12.13387,12.13387,0,0,1,401.41771,95.79538Z" transform="translate(-31.77603 -13.0708)" style="fill:#3d6d38"/><path d="M81.23873,147.6293c2.71409-1.92105,4.8043-3.99928,8.27372-4.03606,5.29288-.05615,11.80761-2.99253,14.84266-6.136-4.77811,1.0334-9.41168,2.23489-14.52411,2.37574a32.58827,32.58827,0,0,0,5.43145-12.38232c.02327-.11168.07578-.21714.10033-.32866.78969-3.58774.79707-3.63162,4.47111-2.99109a38.99811,38.99811,0,0,1,5.85268,1.34282c5.3023,1.80138,10.70424,1.64253,16.14917,1.12627,2.388-.22641,4.77771-.43392,7.15235-.64871.429.43592.04639.781-.09433,1.10381-4.27493,9.8083-10.82278,17.26142-21.529,20.11368A55.67325,55.67325,0,0,1,81.23873,147.6293Z" transform="translate(-31.77603 -13.0708)" style="fill:#3d6d38"/><path d="M407.24019,137.3517c4.92517,3.72168,9.95685,6.10749,15.83056,6.34664a6.74175,6.74175,0,0,1,4.96737,1.84223,19.59127,19.59127,0,0,0,2.70023,1.95807,25.94027,25.94027,0,0,1-6.46628,1.14889c-7.84817.67058-15.63935.30271-23.02572-2.62963-8.891-3.52971-14.39487-10.47865-18.11253-19.03408-.371-.85373-.17616-1.0816.78323-.98573,3.19369.3191,6.40352.48149,9.59411.82563a33.33436,33.33436,0,0,0,13.55876-1.54324,42.94973,42.94973,0,0,1,7.75352-1.4901c.68424-.07944,1.34688-.22023,1.49538.82774a33.16033,33.16033,0,0,0,5.95075,15.18957C417.067,139.726,412.36005,138.42291,407.24019,137.3517Z" transform="translate(-31.77603 -13.0708)" style="fill:#3d6d38"/><path d="M310.98417,80.71123c2.42409-1.83411,4.68141-3.57963,6.97813-5.27164a39.32048,39.32048,0,0,0,10.65984-11.31147,45.32041,45.32041,0,0,1,4.94062-6.38588c.72487-.82475,1.126-.77,1.8847-.07293a28.19247,28.19247,0,0,0,12.97884,7.06027c-3.686,3.30168-7.84388,5.39182-11.775,8.04555.63-.04511,1.26388-.06088,1.8889-.1436.6238-.08257,1.23941-.22871,1.85743-.353a25.55071,25.55071,0,0,0,11.4554-5.60939,5.49516,5.49516,0,0,1,4.02417-1.5107,22.66247,22.66247,0,0,0,3.44753-.34264,50.98129,50.98129,0,0,1-6.8727,7.87645,58.46276,58.46276,0,0,1-12.6219,9.17635C331.20977,86.511,320.22313,86.09511,310.98417,80.71123Z" transform="translate(-31.77603 -13.0708)" style="fill:#3d6d38"/><path d="M152.87094,64.7852a28.16374,28.16374,0,0,0,5.0015.45127c.82755-.01185,1.32425.64339,1.88046,1.10342a27.36852,27.36852,0,0,0,13.73191,6.27245,4.14326,4.14326,0,0,0,2.18234-.00723c-4.10467-2.4354-8.21906-4.56077-11.70684-7.57453.21912-.69921.78641-.53337,1.18134-.6473a27.58832,27.58832,0,0,0,11.2108-6.47647c1.10291-1.02532,1.66549-.81011,2.51593.20286a37.61449,37.61449,0,0,1,4.00218,5.15827c3.32473,5.75462,8.1494,10.01113,13.432,13.84432,1.29947.9429,2.55987,1.942,3.88683,2.84381.82761.56242.88347.901-.06528,1.36743-8.97,4.40984-18.10828,5.43327-27.26775.81887a56.23512,56.23512,0,0,1-19.6483-16.6521A5.45456,5.45456,0,0,1,152.87094,64.7852Z" transform="translate(-31.77603 -13.0708)" style="fill:#3d6d38"/><path d="M226.99865,400.38962c4.64749,1.78831,9.39358,2.46322,14.14116,3.14721.68712.099,1.68953.03434,1.69987,1.04946.0095.935-.93871,1.06186-1.63237,1.2347a60.9482,60.9482,0,0,1-13.11784,1.3151,11.116,11.116,0,0,1-3.07211-.26194l5.88983-2.74462C229.534,402.81556,228.2663,401.60259,226.99865,400.38962Z" transform="translate(-31.77603 -13.0708)" style="fill:#3d6d38"/><path d="M284.67353,400.79612c-1.21005,1.14285-2.30961,2.18134-3.52409,3.3284,2.09745.97137,3.99258,1.849,5.88771,2.72676l-.0346.23316c-1.59436,0-3.1897.03564-4.78291-.00736a61.47045,61.47045,0,0,1-10.24233-.98629,11.874,11.874,0,0,1-1.49189-.38976c-.59461-.20016-1.30321-.39574-1.2224-1.20456.07063-.70715.73119-.80063,1.30119-.88882,1.63944-.25353,3.28658-.46084,4.92107-.74237a42.31007,42.31007,0,0,0,7.62082-2.02078A1.44781,1.44781,0,0,1,284.67353,400.79612Z" transform="translate(-31.77603 -13.0708)" style="fill:#3d6d38"/><path d="M353.70944,379.84763a92.17479,92.17479,0,0,1-12.94393,3.98478,16.828,16.828,0,0,1-2.38754.228c-.46931.029-.96668-.04145-1.14544-.55584-.18154-.5225.17946-.887.573-1.13567.82192-.51947,1.65792-1.02113,2.51557-1.47869a64.197,64.197,0,0,0,10.05333-6.74273c-.75481,1.49479-1.50961,2.98958-2.32337,4.6011a37.99146,37.99146,0,0,0,5.65737.48446A.36943.36943,0,0,1,353.70944,379.84763Z" transform="translate(-31.77603 -13.0708)" style="fill:#3d6d38"/><path d="M161.57617,373.87417a59.00568,59.00568,0,0,0,11.96211,8.01917,4.23322,4.23322,0,0,1,.58144.36328c.39873.31331.93639.59467.763,1.21583-.177.63409-.77774.62623-1.28245.58319a24.19863,24.19863,0,0,1-2.88794-.37148,68.41578,68.41578,0,0,1-12.89182-4.34962c2.03884-.15829,4.07767-.31659,6.266-.48652C163.19735,377.08636,162.38676,375.48027,161.57617,373.87417Z" transform="translate(-31.77603 -13.0708)" style="fill:#3d6d38"/><path d="M109.55353,326.53171a57.1714,57.1714,0,0,0,7.54113,10.38745c.52129.594,1.52761,1.33515.81469,2.1428-.648.73405-1.60744.02188-2.329-.39811a67.83375,67.83375,0,0,1-11.96741-9.50189c1.92723.59915,3.85445,1.19832,5.8681,1.82432.25054-1.19264-.40079-2.26925-.25773-3.38943C109.15869,327.18764,108.748,326.67113,109.55353,326.53171Z" transform="translate(-31.77603 -13.0708)" style="fill:#3d6d39"/><path d="M403.0083,326.902c-.16288,1.29573-.32571,2.59144-.51813,4.12242,2.02124-.634,3.88571-1.21892,5.77031-1.81008.03774.177.101.31314.06818.34271a79.74519,79.74519,0,0,1-11.49935,8.932c-.79294.48758-1.89007,1.39373-2.61849.56943-.81059-.91733.42478-1.73946,1.00848-2.40762a51.75062,51.75062,0,0,0,7.445-10.4505C403.31917,326.16943,403.10972,326.5622,403.0083,326.902Z" transform="translate(-31.77603 -13.0708)" style="fill:#3d6d38"/><path d="M72.38217,269.25877l4.34284,3.35451,1.02423-5.17943c.4362,1.95978.77451,3.53912,1.14078,5.11194a71.09384,71.09384,0,0,0,2.57562,7.63713c.27682.77769,1.19721,1.87323.12984,2.42758-.90185.46838-1.531-.71829-2.096-1.38908a57.17469,57.17469,0,0,1-4.89711-7.26036c-.88309-1.45043-1.70549-2.93778-2.5552-4.40853Z" transform="translate(-31.77603 -13.0708)" style="fill:#3e6d39"/><path d="M434.60065,268.36607c.22765,1.34889.4553,2.69779.72859,4.31694,1.66637-1.32316,3.14536-2.49752,4.62435-3.67186-2.29341,4.60161-4.64621,9.09874-8.01589,12.94614-.39115.44666-.94467,1.14162-1.57591.67162-.53949-.40162-.23807-1.18388-.01732-1.77215a62.84987,62.84987,0,0,0,3.05957-9.102c.23437-1.11934.40431-2.25218.60367-3.37883C434.20114,268.11671,434.39886,268.11908,434.60065,268.36607Z" transform="translate(-31.77603 -13.0708)" style="fill:#3e6d39"/><path d="M62.67789,205.73288l3.042,4.90079,2.29063-3.85766a70.46419,70.46419,0,0,0-.36923,10.88131c.04843.968.08033,1.93939.0522,2.90727-.01026.35315.03926.85491-.5223.94068a.844.844,0,0,1-.92734-.60556,31.78924,31.78924,0,0,1-1.16244-3.02834A64.21586,64.21586,0,0,1,62.67789,205.73288Z" transform="translate(-31.77603 -13.0708)" style="fill:#3e6d39"/><path d="M444.26282,207.045c.65221,1.12642,1.30438,2.25287,2.09291,3.61475,1.01562-1.63923,1.92146-3.10124,3.006-4.8517.27968,1.92977-.3155,3.37427-.605,4.84348a50.24692,50.24692,0,0,1-2.58141,9.59185c-.22831.55217-.44133,1.36382-1.22091,1.22956-.84976-.14633-.62556-.99357-.59917-1.57131a57.15651,57.15651,0,0,0-.449-12.49465C443.77453,207.03951,443.94762,206.97228,444.26282,207.045Z" transform="translate(-31.77603 -13.0708)" style="fill:#3e6d39"/><path d="M75.60019,152.01285l3.11286-2.53681.25894.18582c-.57641,1.19721-1.18027,2.38209-1.72356,3.59415a69.45611,69.45611,0,0,0-2.69185,7.95828c-.16991.5482-.32374,1.2864-.98,1.24959-.67031-.0376-.75391-.79182-.78206-1.3559a58.07114,58.07114,0,0,1,1.55714-14.50946Z" transform="translate(-31.77603 -13.0708)" style="fill:#3e6d39"/><path d="M403.96306,96.56387a6.03581,6.03581,0,0,1,3.046.79719c.92808.33459,1.38951.38327,1.19094-.85991a25.91277,25.91277,0,0,1-.28838-4.35139,62.37968,62.37968,0,0,1,5.90763,13.022c.15132.53016.42688,1.22492-.18754,1.56436-.76693.42366-1.13412-.371-1.46613-.82765C409.7475,102.583,407.35359,99.24246,403.96306,96.56387Z" transform="translate(-31.77603 -13.0708)" style="fill:#3e6d39"/><path d="M437.7978,146.35451A74.70846,74.70846,0,0,1,439.39,159.30719c.0414,1.10793.24315,2.89959-.79008,3.04705-1.29464.18479-1.21062-1.6495-1.50942-2.6538a44.72375,44.72375,0,0,0-4.2321-10.28831c1.57873.48937,2.28865,1.77916,3.64369,2.52845C436.94639,150.025,437.37209,148.18976,437.7978,146.35451Z" transform="translate(-31.77603 -13.0708)" style="fill:#3e6d39"/><path d="M104.12866,93.79267l-.356,3.97333,3.87824-1.32713c.15951.64091-.32459.76227-.572.9792a47.05977,47.05977,0,0,0-7.0606,8.39663c-.3482.48942-.72575,1.28257-1.42921.97407-.79193-.34731-.44386-1.2288-.26863-1.81874a73.57441,73.57441,0,0,1,5.52006-12.53429C104.62,92.74294,104.19043,93.30685,104.12866,93.79267Z" transform="translate(-31.77603 -13.0708)" style="fill:#3e6d39"/><path d="M148.16651,59.54851c-.70467,1.5326-1.40933,3.06521-2.2121,4.81119h4.22823l.05051.26654c-1.69338.80629-3.43235,1.53075-5.06734,2.44182-1.64557.917-3.17258,2.04428-4.78284,3.02821-.6288.38422-1.37424,1.33817-2.05269.57164-.59857-.67627.22957-1.488.68353-2.10741a58.85177,58.85177,0,0,1,6.63653-7.18669c.73278-.71377,1.51144-1.38042,2.2691-2.06864Z" transform="translate(-31.77603 -13.0708)" style="fill:#3e6d39"/><path d="M361.73781,64.4945h4.459c-.84384-1.82007-1.5929-3.43564-2.43178-5.2449a7.94494,7.94494,0,0,1,2.66708,2.16765A55.3296,55.3296,0,0,1,373.1694,68.71c.393.56164,1.19241,1.25211.60073,1.94243-.67475.78727-1.3745-.08327-1.91432-.45756A49.45847,49.45847,0,0,0,361.73781,64.4945Z" transform="translate(-31.77603 -13.0708)" style="fill:#3e6d39"/><path d="M80.3032,307.95356a3.03818,3.03818,0,0,1-.21735-1.79456c.41123.07139.49634.402.596.72013C80.22155,307.11954,80.44561,307.60112,80.3032,307.95356Z" transform="translate(-31.77603 -13.0708)" style="fill:#c9d6c8"/><path d="M104.12866,93.79267c-.19071-.43221.10905-.96856-.28813-1.35693.09357-.19813.13588-.48951.29136-.57493.32258-.17721.31361.13771.30484.33077A2.83336,2.83336,0,0,1,104.12866,93.79267Z" transform="translate(-31.77603 -13.0708)" style="fill:#789975"/><path d="M434.60065,268.36607l-.5929.00983c-.03834-.40019-.26821-1.05381.21621-1.07893C434.73213,267.27066,434.68018,267.92027,434.60065,268.36607Z" transform="translate(-31.77603 -13.0708)" style="fill:#b2c5b0"/><path d="M109.55353,326.53171c-.37778.272-.21544.71152-.3302,1.06512a2.9756,2.9756,0,0,1-.28649-1.95753C109.42907,325.7684,109.45174,326.17729,109.55353,326.53171Z" transform="translate(-31.77603 -13.0708)" style="fill:#5e8559"/><path d="M431.55651,306.55656c.05931-.28767.32869-.62439.49951-.42358.38649.45414.15325.99-.14244,1.456C431.73923,307.264,432.05207,306.77048,431.55651,306.55656Z" transform="translate(-31.77603 -13.0708)" style="fill:#9ab398"/><path d="M403.0083,326.902l-.344-.7016.439-1.023A1.66591,1.66591,0,0,1,403.0083,326.902Z" transform="translate(-31.77603 -13.0708)" style="fill:#7b9c78"/><path d="M444.26282,207.045l-.35661.362a1.38293,1.38293,0,0,1-.25685-1.24358A1.13852,1.13852,0,0,1,444.26282,207.045Z" transform="translate(-31.77603 -13.0708)" style="fill:#7c9c78"/><path d="M353.70944,379.84763l-.001-.61456c.31272-.05157.85578-.12723.86086.09924C354.57833,379.73822,354.115,379.8557,353.70944,379.84763Z" transform="translate(-31.77603 -13.0708)" style="fill:#7a9b77"/><path d="M60.38587,208.73247l.36636-.72672a.9196.9196,0,0,1,.16026,1.227C60.77648,209.39624,60.46443,209.02436,60.38587,208.73247Z" transform="translate(-31.77603 -13.0708)" style="fill:#759772"/><path d="M81.20116,441.88428,95.0498,481.51319a19.65613,19.65613,0,0,0,2.07226,4.459,4.69167,4.69167,0,0,0,1.86866,1.74317,8.12128,8.12128,0,0,0,2.27636.4873v.502H86.16259v-.502a11.304,11.304,0,0,0,3.58008-.44043q1.25537-.43945,1.25635-2.38672a9.6377,9.6377,0,0,0-.59668-2.85742.95882.95882,0,0,1-.126-.377L86.16259,469.8628H70.14794L66.47363,481.231a12.83681,12.83681,0,0,0-.75342,3.73633,2.90409,2.90409,0,0,0,.97314,2.59082,4.99135,4.99135,0,0,0,2.76367.64453v.502H58.59179v-.502a5.49768,5.49768,0,0,0,3.72119-1.77441,13.25994,13.25994,0,0,0,2.43359-4.72657l13.06348-39.81738ZM70.68163,468.19873H85.40917l-7.53662-21.95019h-.12549Z" transform="translate(-31.77603 -13.0708)"/><path d="M137.91357,442.44873v.53418a5.4974,5.4974,0,0,0-2.92041,1.19336,8.23884,8.23884,0,0,0-1.97852,2.52832q-.81665,1.55421-1.85254,4.12891a1.87571,1.87571,0,0,0-.314.75391L117.4707,489.9292h-.43946l-15.76416-41.48242a.974.974,0,0,0-.12549-.37695,8.43279,8.43279,0,0,0-2.40234-3.89356,5.54412,5.54412,0,0,0-3.72119-1.19336v-.53418h15.19873v.53418a9.17743,9.17743,0,0,0-3.07715.75391q-1.16235.56542-1.16211,2.7002a11.02344,11.02344,0,0,0,.50244,2.32421,3.13137,3.13137,0,0,1,.10987.32911c.03125.11523.05761.2041.07861.26757l12.15283,32.46973h.12549l10.42529-30.24023a15.64481,15.64481,0,0,0,1.09912-4.67871q0-2.48145-1.05175-3.14063a6.7572,6.7572,0,0,0-3.12452-.78516v-.53418Z" transform="translate(-31.77603 -13.0708)"/><path d="M140.89648,442.98291v-.53418h27.57129v7.28614h-.43946q0-5.84179-7.78808-5.84082h-9.64014v21.00781h8.47852a11.67224,11.67224,0,0,0,4.49072-.81641q1.97827-.81591,2.26074-3.7373h.47119v10.48828h-.47119a5.68344,5.68344,0,0,0-1.06787-2.74707,4.15631,4.15631,0,0,0-1.5542-1.27246,3.69018,3.69018,0,0,0-1.36621-.31348,14.26687,14.26687,0,0,0-2.355-.18847h-8.88672V482.7378a6.81465,6.81465,0,0,0,.70654,3.20312q.70606,1.35059,3.28125,1.35059h6.87744a9.95594,9.95594,0,0,0,4.082-.72266,6.13134,6.13134,0,0,0,2.52783-2.00976,11.97531,11.97531,0,0,0,1.55469-3.1084h.43945l-1.60156,7.2539H140.89648v-.502h.62842a4.45765,4.45765,0,0,0,2.88867-1.19336,4.83353,4.83353,0,0,0,1.41308-3.89453V448.25831a6.97925,6.97925,0,0,0-.95752-3.70508,3.59794,3.59794,0,0,0-3.34423-1.57032Z" transform="translate(-31.77603 -13.0708)"/><path d="M212.43115,488.70459H195.12841v-.502h.62842a4.14011,4.14011,0,0,0,3.03027-1.27246,5.18161,5.18161,0,0,0,1.27149-3.81543V448.19581a5.71322,5.71322,0,0,0-1.17725-3.84668,3.99142,3.99142,0,0,0-3.1875-1.36622h-.56543v-.53418H210.2329a16.79764,16.79764,0,0,1,5.49561.86426,12.61011,12.61011,0,0,1,4.25488,2.38672,10.93943,10.93943,0,0,1,2.68506,3.4541,9.43135,9.43135,0,0,1,.94189,4.19141,9.003,9.003,0,0,1-2.70068,6.7832,16.32322,16.32322,0,0,1-7.25391,3.83106v.126a33.73838,33.73838,0,0,1,3.98829.65918,15.00089,15.00089,0,0,1,3.4541,1.22461,12.76832,12.76832,0,0,1,2.88916,2.041,12.21383,12.21383,0,0,1,2.07275,2.48144,11.05637,11.05637,0,0,1,1.28711,2.93555,12.11681,12.11681,0,0,1,.43994,3.25,10.39054,10.39054,0,0,1-1.86865,6.21777,13.52835,13.52835,0,0,1-4.22363,3.957Q218.33446,488.70508,212.43115,488.70459ZM204.832,463.67725h3.01465a13.2,13.2,0,0,0,5.27539-.75391,11.52958,11.52958,0,0,0,2.08838-1.38183,8.76646,8.76646,0,0,0,2.07227-2.76367,9.682,9.682,0,0,0,.98926-4.55274,11.76188,11.76188,0,0,0-.65918-3.9414,10.15488,10.15488,0,0,0-1.91553-3.3125,9.02948,9.02948,0,0,0-2.9834-2.26075,8.69582,8.69582,0,0,0-3.76807-.8164,14.68,14.68,0,0,0-4.11377.69043Zm4.7417,1.41309H204.832v16.6748a9.94753,9.94753,0,0,0,.32959,2.77832,3.447,3.447,0,0,0,1.80567,1.93164,9.74714,9.74714,0,0,0,4.55322.81641q6.37427,0,9.0752-4.23926a11.99371,11.99371,0,0,0,1.853-6.56348,11.8722,11.8722,0,0,0-.92675-4.77246,9.97792,9.97792,0,0,0-2.54346-3.56445,11.61157,11.61157,0,0,0-4.06641-2.24512A16.79987,16.79987,0,0,0,209.57372,465.09034Z" transform="translate(-31.77603 -13.0708)"/><path d="M281.95605,465.62354a23.82649,23.82649,0,0,1-3.21875,12.08984A24.35983,24.35983,0,0,1,269.96,486.6167a23.5936,23.5936,0,0,1-12.30957,3.3125A24.42033,24.42033,0,0,1,233.06249,465.436a23.85612,23.85612,0,0,1,7.33252-17.36621,25.057,25.057,0,0,1,7.91309-5.14942,24.497,24.497,0,0,1,26.22021,4.96094,23.82066,23.82066,0,0,1,5.44922,7.81934A24.50012,24.50012,0,0,1,281.95605,465.62354Zm-5.52735.126q0-9.23145-3.26562-14.44532-3.26661-5.21191-7.53711-6.98632a21.00075,21.00075,0,0,0-8.03809-1.77442,20.73792,20.73792,0,0,0-6.061.958,17.10817,17.10817,0,0,0-6.10742,3.501,18.60618,18.60618,0,0,0-4.8833,7.16015A29.81627,29.81627,0,0,0,238.6206,465.561a30.95467,30.95467,0,0,0,1.58594,10.41016,19.39925,19.39925,0,0,0,4.36474,7.2539,16.81587,16.81587,0,0,0,6.12354,4.05078,19.70189,19.70189,0,0,0,13.50342.09375,16.79139,16.79139,0,0,0,6.06054-3.73632,18.73252,18.73252,0,0,0,4.459-7.03418A30.301,30.301,0,0,0,276.4287,465.74952Z" transform="translate(-31.77603 -13.0708)"/><path d="M288.20507,443.10889h-.62793v-.66016h16.01465a16.09532,16.09532,0,0,1,6.54785,1.19336,11.0249,11.0249,0,0,1,4.17676,3.03028,11.73944,11.73944,0,0,1,2.13476,3.8789,13.324,13.324,0,0,1,.64356,4.01954,11.49025,11.49025,0,0,1-1.05176,4.81933,10.37638,10.37638,0,0,1-3.23437,3.97266,12.549,12.549,0,0,1-5.44825,2.26074v.126q4.14552,2.00976,7.66211,7.97656l4.17676,7.06543q2.82569,4.74169,4.53711,5.99707a6.83207,6.83207,0,0,0,3.376,1.41406v.502h-8.416q-.53321-.68994-1.00488-1.335-.47022-.64306-1.00488-1.36523-.31348-.47167-.92578-1.42871a11.22209,11.22209,0,0,0-.73829-1.084l-5.52636-9.13769a23.18935,23.18935,0,0,0-3.40723-4.53809,13.045,13.045,0,0,0-3.25-2.49609,9.46924,9.46924,0,0,0-2.7168-.94238,18.7837,18.7837,0,0,0-2.84179-.18848v16.92578q0,4.93066,5.02441,5.08789v.502H287.57714v-.502a7.02172,7.02172,0,0,0,2.44922-.51855,3.91475,3.91475,0,0,0,1.77441-1.57032,5.55655,5.55655,0,0,0,.70606-2.999V448.13331q0-2.76417-1.34961-3.89454A4.50594,4.50594,0,0,0,288.20507,443.10889Zm9.0752,21.85547H299.918a16.66075,16.66075,0,0,0,6.79883-1.19336,7.82452,7.82452,0,0,0,3.84668-3.40723,11.2958,11.2958,0,0,0,1.19336-5.417,13.48575,13.48575,0,0,0-1.06738-5.22851,9.70706,9.70706,0,0,0-3.627-4.30176,12.06887,12.06887,0,0,0-6.89355-1.74317,12.211,12.211,0,0,0-2.88867.28321Z" transform="translate(-31.77603 -13.0708)"/><path d="M353.64745,451.33643h-.50293a10.05752,10.05752,0,0,0-2.93652-5.88867,8.83542,8.83542,0,0,0-6.57812-2.52735,8.97034,8.97034,0,0,0-4.74219,1.25586,8.55594,8.55594,0,0,0-3.20313,3.42286,10.57852,10.57852,0,0,0-1.12988,4.96191,10.25155,10.25155,0,0,0,.67481,3.84668,8.5731,8.5731,0,0,0,1.99414,2.9668,18.12083,18.12083,0,0,0,3.10839,2.40234q1.79,1.11621,4.83594,2.81055a36.22725,36.22725,0,0,1,7.91406,5.57422,10.19471,10.19471,0,0,1,2.82618,7.61523,11.60292,11.60292,0,0,1-1.52344,5.69922,11.76417,11.76417,0,0,1-4.60059,4.50586,15.17788,15.17788,0,0,1-7.63086,1.75879,18.90194,18.90194,0,0,1-5.05566-.61231,26.50142,26.50142,0,0,1-4.459-1.71094,5.07979,5.07979,0,0,0-1.2871-.31445.84016.84016,0,0,0-.86329.4707,13.81106,13.81106,0,0,0-.5498,2.042h-.53418V478.02784h.53418a13.06352,13.06352,0,0,0,4.39648,7.69336,12.33124,12.33124,0,0,0,7.94434,2.60644,10.575,10.575,0,0,0,5.63672-1.31836,7.18908,7.18908,0,0,0,2.93652-3.20312,9.42146,9.42146,0,0,0,.81641-3.76856,8.79893,8.79893,0,0,0-2.3711-6.35937,29.038,29.038,0,0,0-7.207-5.04q-3.32812-1.8208-4.92968-2.82617a19.7763,19.7763,0,0,1-3.25-2.60645,12.04647,12.04647,0,0,1-2.62207-3.7832,12.66762,12.66762,0,0,1,.75293-11.25781,12.89548,12.89548,0,0,1,4.89941-4.78907,14.27882,14.27882,0,0,1,7.19043-1.80566,20.25279,20.25279,0,0,1,6.249,1.03613,3.04014,3.04014,0,0,0,1.35059.251q1.03564,0,1.41308-1.41309h.50293Z" transform="translate(-31.77603 -13.0708)"/><path d="M401.7871,452.812h-.53418a9.89081,9.89081,0,0,0-3.1875-5.74707,16.09348,16.09348,0,0,0-5.95019-3.43848,20.55172,20.55172,0,0,0-6.28125-1.083,17.10233,17.10233,0,0,0-7.48926,1.67969,17.80627,17.80627,0,0,0-6.04492,4.74219,22.264,22.264,0,0,0-3.95606,7.34765,29.56844,29.56844,0,0,0-1.41308,9.31055,28.79469,28.79469,0,0,0,1.36523,9.02832,21.06639,21.06639,0,0,0,3.98828,7.22266,17.47394,17.47394,0,0,0,6.07617,4.63183,18.30232,18.30232,0,0,0,7.66211,1.57031A24.1842,24.1842,0,0,0,393.748,486.648a19.9057,19.9057,0,0,0,7.59863-4.75781v1.79a36.84745,36.84745,0,0,1-7.64551,4.74219,21.76183,21.76183,0,0,1-8.65136,1.50683,24.37589,24.37589,0,0,1-9.97071-1.99414,22.5641,22.5641,0,0,1-7.61523-5.38574,23.4772,23.4772,0,0,1-4.71-7.62988,25.01313,25.01313,0,0,1,1.72754-21.27539,24.91639,24.91639,0,0,1,9.01172-9.16992,23.74,23.74,0,0,1,12.34082-3.375,34.44728,34.44728,0,0,1,8.76172,1.2246l3.26562.91016a8.35432,8.35432,0,0,0,1.60156.18848,2.59112,2.59112,0,0,0,1.63282-.36133,2.47135,2.47135,0,0,0,.62793-1.30273h.50293Z" transform="translate(-31.77603 -13.0708)"/><path d="M442.38964,463.61377V448.13331a5.53368,5.53368,0,0,0-1.22461-3.70606,4.71179,4.71179,0,0,0-3.7998-1.44434v-.53418h14.72754v.53418a4.6399,4.6399,0,0,0-3.76856,1.42872,5.61179,5.61179,0,0,0-1.19336,3.72168v34.98144q0,5.0874,4.96192,5.08789v.502H437.36523v-.502a5.13225,5.13225,0,0,0,3.68945-1.27246,4.945,4.945,0,0,0,1.335-3.752V465.02686h-26.5039v18.08789a4.67077,4.67077,0,0,0,5.02441,5.08789v.502H406.18261v-.502a4.81547,4.81547,0,0,0,3.6582-1.335,5.22356,5.22356,0,0,0,1.27149-3.75293V448.13331q0-5.1504-4.92969-5.1504v-.53418h14.72754v.53418a4.728,4.728,0,0,0-3.81543,1.42872,5.56766,5.56766,0,0,0-1.209,3.72168v15.48046Z" transform="translate(-31.77603 -13.0708)"/><path d="M361.26293,149.37782c-6.86-9.60515-16.56471-16.698-26.56137-22.745-11.34165-6.86046-23.172-12.95478-34.79237-19.32449-11.42846-6.26455-23.27291-14.23239-36.04559-17.36127a32.3652,32.3652,0,0,0-8.65519-.94259c-.36056.00588-.72185.01243-1.083.023-.28056.03267-1.14469.10883-1.395.14642-.68879.10348-1.393.21086-2.08589.28422l-.02829.00762c-.92847.23891-1.88037.4064-2.81318.63172-.22668.05475-1.06343.2673-1.61187.4038-.25327.072-.47946.13664-.54048.15611-.696.22214-1.39242.44168-2.08622.67052q-2.43681.80379-4.84234,1.69727c-.91947.33984-1.83329.694-2.74841,1.0453-.025.00959-.4453.177-.81386.32317-.61365.26079-2.43267,1.01807-2.36225.98809q-1.01193.43089-2.02053.86958-2.34384,1.0156-4.67644,2.05653c-2.9853,1.32682-5.97,2.65654-8.93329,4.0318-2.9463,1.36741-5.87333,2.77935-8.74676,4.29458-.62526.32972-1.25366.66334-1.87507,1.00631-.07764.05023-.256.16069-.59654.36775-1.38027.83926-2.755,1.68315-4.09851,2.58053-10.52331,7.029-18.41158,17.69152-28.05886,26.02166-9.59908,8.2885-19.85263,16.16718-26.53163,27.162a88.8719,88.8719,0,0,0-11.92788,34.88631c-3.345,26.57192,4.64762,54.56109,16.5341,78.14454,5.45633,10.8256,12.42943,20.90357,21.57256,28.95089,10.01483,8.81472,22.40613,14.48485,34.29623,20.2882,11.87775,5.79737,24.22538,11.20694,37.47354,12.6919a56.29541,56.29541,0,0,0,9.2723.33469c.457-.01051,2.518-.10372,2.74513-.09669,1.52221-.11808,3.04352-.28176,4.55807-.46433,1.994-.24041,3.97161-.55842,5.95724-.85309l.00386-.00058c.06675-.01562.12015-.02844.2017-.04695.73366-.16647,1.47947-.29236,2.21616-.44592,3.43836-.7165,6.84841-1.55147,10.2458-2.44023,2.00183-.52362,8.32387-1.69693,12.7321-.85791.67693-.33189,1.34707-.67428,2.01793-1.01832.03171-.01619.31926-.1764.5921-.32755.42067-.25679,1.158-.69924,1.30764-.79226q.79548-.49465,1.58011-1.00646,1.828-1.19809,3.5826-2.50279a54.44307,54.44307,0,0,0,5.87068-5.11027,75.61443,75.61443,0,0,0,5.92032-6.59456c4.00144-5.00847,7.45845-10.471,11.93078-15.09271,4.71885-4.87642,10.42412-8.56766,16.05521-12.2777a56.17671,56.17671,0,0,0,21.164-26.05327c5.19422-12.42827,7.06713-25.85923,7.89-39.21472.81126-13.16809,1.57451-26.57674.674-39.75732C370.90611,172.11117,368.38838,159.35458,361.26293,149.37782Z" transform="translate(-31.77603 -13.0708)" style="fill:#d42301"/><path d="M220.297,154.748c-6.9076-.23366-14.67388,2.26046-18.50783,8.31742-1.08734,1.7178-1.81931,3.678-3.29222,5.12232-1.58584,1.55494-3.60333,2.19172-5.64873,2.901-7.10313,2.463-19.44243,7.17273-21.57531,15.49612-.08179.12686-.17346.24455-.25183.37459a9.82135,9.82135,0,0,0-.68213,8.72343c.97093,2.59475,2.41454,6.67635,4.433,8.60222,2.91671,2.78291,8.71808,1.7899,12.18462.98072,3.98781-.93084,8.74946-2.36563,11.63591-5.43247,2.13143-2.26465,2.17866-4.77752,1.75732-7.56983a27.56086,27.56086,0,0,1,6.48944-9.68285c3.70329-3.53942,8.44056-4.661,12.86242-6.99449,4.60194-2.42848,9.7911-6.165,10.35159-11.774C230.62767,158.06361,225.45363,154.9224,220.297,154.748Z" transform="translate(-31.77603 -13.0708)" style="fill:#9e0603"/><path d="M353.77581,173.60827c-4.91507-7.41034-9.43661-15.44927-15.1116-22.30728-5.35232-6.468-13.02679-9.48716-21.12992-10.83433-8.27331-1.3754-17.61922-1.87121-25.883-.30345-7.22632,1.37093-20.2317,6.4503-17.40194,16.19378a3.06788,3.06788,0,0,0,2.45141,2.04463,60.16169,60.16169,0,0,0-5.719,7.36581c-3.24879,4.95811-5.03455,10.582-7.73809,15.81625-4.68806,9.07633-12.87168,12.564-22.04971,14.53208-2.18.46747-9.02466,2.3543-8.42311,5.64025.5922,3.23481,8.3847,1.73255,10.04312,1.37695,12.23427-2.62343,26.23185-7.05952,34.40583-17.18631,4.3033-5.3314,6.29337-11.73167,9.3244-17.76815a50.8167,50.8167,0,0,1,11.3219-14.368c.71558.264,1.5094.60483,2.42524,1.01957,3.71313,1.68161,9.48066.01634,12.92325-1.65775a12.20731,12.20731,0,0,0,2.08671-1.2994c4.09677,2.57017,7.022,6.5519,9.71528,10.55209,3.83324,5.69331,7.58959,11.43993,11.3833,17.15966C339.09788,183.65241,356.96117,178.41075,353.77581,173.60827Z" transform="translate(-31.77603 -13.0708)" style="fill:#9e0603"/><path d="M218.9828,233.40408a13.51407,13.51407,0,0,0-6.42639-.3876c-.05553-.39763-.11173-.7942-.172-1.18768-.47682-3.11375-.90611-6.36042-3.79183-8.15095-3.60521-2.23713-8.81207-1.57412-12.707-.64661-7.776,1.85193-14.02177,7.19336-15.6639,15.22853-1.37247,6.71592,1.55557,12.40764,7.80045,15.13387,2.38505,1.04126,5.31347,1.36225,7.4087,2.96106,2.83232,2.161,2.46149,5.94311,1.82331,9.04143-1.13384,5.50453-3.0909,11.40051,1.49508,15.899,3.83275,3.75968,20.90951-2.51021,17.37592-5.97637-1.82851-1.79362-2.0708-4.18344-1.79154-6.58772,4.90629-.80026,9.70863-3.03238,12.46137-6.38287a7.46962,7.46962,0,0,0,1.867-5.59937,16.12827,16.12827,0,0,0,2.08309-6.59918C231.44519,242.44205,226.02207,235.86484,218.9828,233.40408Z" transform="translate(-31.77603 -13.0708)" style="fill:#9e0603"/><path d="M255.69935,117.69553c-4.08742-1.92577-9.099-1.17452-13.31842-.08714a34.1628,34.1628,0,0,0-4.7057,1.601,7.32835,7.32835,0,0,1-.77.26224c-.32856-.009-.712-.00578-.65963-.003a33.33159,33.33159,0,0,0-4.29723.24079c-7.54963.59211-20.38463,3.34109-22.08446,12.35833-.705,3.74026,7.844,3.63428,13.49174,1.54907,7.11432-.06218,14.43251.01918,21.28723-1.31044,4.5521-.88293,10.28016-2.63727,12.99227-6.746C259.56864,122.63128,258.99065,119.24624,255.69935,117.69553Z" transform="translate(-31.77603 -13.0708)" style="fill:#9e0603"/><path d="M344.13745,125.609c-11.68222-11.68217-38.78205-40.1845-88.13614-40.1845-17.82642,0-33.83854,6.42688-49.46586,12.51512-42.37791,16.50991-63.38044,51.8753-69.49832,66.33961A128.70466,128.70466,0,0,0,126.891,214.53481c0,17.82647,5.19215,34.01934,11.72545,49.46591a129.318,129.318,0,0,0,27.66943,41.03918c7.49811,7.49807,26.14239,27.19575,71.26759,35.12093a122.2251,122.2251,0,0,0,66.375-7.2832q1.16989-.4679,2.32841-.958c15.44653-6.53334,51.31775-30.85151,68.70861-67.12927,7.24989-15.12356,10.14612-32.42911,10.14612-50.25558s-6.77144-32.44-13.30478-47.88657A129.31843,129.31843,0,0,0,344.13745,125.609Zm26.91475,98.26375c-.82282,13.35549-2.69573,26.78645-7.89,39.21472a56.17671,56.17671,0,0,1-21.164,26.05327c-5.63109,3.71-11.33636,7.40128-16.05521,12.2777-4.47233,4.62174-7.92934,10.08424-11.93078,15.09271a75.61443,75.61443,0,0,1-5.92032,6.59456,54.44307,54.44307,0,0,1-5.87068,5.11027q-1.75585,1.301-3.5826,2.50279-.78356.5133-1.58011,1.00646c-.1496.093-.887.53547-1.30764.79226-.27284.15115-.56039.31136-.5921.32755-.67086.344-1.341.68643-2.01793,1.01832-4.40823-.839-10.73027.33429-12.7321.85791-3.39739.88876-6.80744,1.72373-10.2458,2.44023-.73669.15356-1.4825.27945-2.21616.44592-.08155.01851-.135.03133-.2017.04695l-.00386.00058c-1.98563.29467-3.96327.61268-5.95724.85309-1.51455.18257-3.03586.34625-4.55807.46433-.22711-.007-2.28812.08618-2.74513.09669a56.29541,56.29541,0,0,1-9.2723-.33469c-13.24816-1.485-25.59579-6.89453-37.47354-12.6919-11.8901-5.80335-24.2814-11.47348-34.29623-20.2882-9.14313-8.04732-16.11623-18.12529-21.57256-28.95089-11.88648-23.58345-19.87909-51.57262-16.5341-78.14454a88.8719,88.8719,0,0,1,11.92788-34.88631c6.679-10.99487,16.93255-18.87355,26.53163-27.162,9.64728-8.33014,17.53555-18.9927,28.05886-26.02166,1.34351-.89738,2.71824-1.74127,4.09851-2.58053.34052-.20706.5189-.31752.59654-.36775.62141-.343,1.24981-.67659,1.87507-1.00631,2.87343-1.51523,5.80046-2.92717,8.74676-4.29458,2.96332-1.37526,5.948-2.705,8.93329-4.0318q2.33415-1.03737,4.67644-2.05653,1.00911-.43733,2.02053-.86958c-.07042.03,1.7486-.7273,2.36225-.98809.36856-.14619.78889-.31358.81386-.32317.91512-.35131,1.82894-.70546,2.74841-1.0453q2.40666-.88968,4.84234-1.69727c.6938-.22884,1.39025-.44838,2.08622-.67052.061-.01947.28721-.08411.54048-.15611.54844-.1365,1.38519-.349,1.61187-.4038.93281-.22532,1.88471-.39281,2.81318-.63172l.02829-.00762c.69284-.07336,1.3971-.18074,2.08589-.28422.25033-.03759,1.11446-.11375,1.395-.14642.36119-.01056.72248-.01711,1.083-.023a32.3652,32.3652,0,0,1,8.65519.94259c12.77268,3.12888,24.61713,11.09672,36.04559,17.36127,11.62039,6.36971,23.45072,12.464,34.79237,19.32449,9.99666,6.047,19.70139,13.1398,26.56137,22.745,7.12545,9.97676,9.64318,22.73335,10.46331,34.73762C372.62671,197.296,371.86346,210.70467,371.0522,223.87276Z" transform="translate(-31.77603 -13.0708)" style="fill:#9e0603"/><path d="M349.05835,186.51066c-3.46028-8.16464-7.79327-16.62448-14.02673-23.03342a44.78513,44.78513,0,0,0-22.80246-12.18357c-7.43753-1.5414-15.99627-1.26889-22.00089,3.97045-6.52264,5.69134-7.47565,15.281-11.6357,22.51481a50.35869,50.35869,0,0,1-21.03931,19.77846c-8.60173,4.35131-18.161,7.11846-25.26674,13.95815-11.3392,10.91458-12.458,28.84708-5.81848,42.56713a39.55687,39.55687,0,0,0-8.7523,4.6631c-6.72662,5.13128-8.78855,13.27229-6.79236,21.32761,1.983,8.00231,7.61225,15.94388,15.398,19.09772,8.398,3.402,17.55844.76326,25.45721-2.72932,3.74118-1.65413,7.24117-3.53421,9.03942-7.39366,1.8275-3.9224,1.03831-8.0505.96664-12.19307-.02482-1.4356-.11336-3.44765.75844-4.6788,1.44515-2.04077,4.03248-.71072,5.87974.087a75.00758,75.00758,0,0,0,14.42792,5.02872c15.90547,3.32919,37.34857,1.00308,46.2218-14.65662,3.74589-6.61094,4.79732-14.9488,1.51667-21.95708-1.69539-3.62184-4.84909-6.25245-6.59745-9.8297a16.36559,16.36559,0,0,1,7.30311-22.01964c3.74291-1.92881,7.97276-1.66883,11.88171-3.01633C351.93554,202.79336,352.1974,193.91748,349.05835,186.51066Z" transform="translate(-31.77603 -13.0708)" style="fill:#e6e6e6"/><path d="M177.27859,238.39116c.27569-7.44751-7.3058-9.94837-13.15667-6.63307-6.53537,3.70315-7.10053,11.22059-4.671,17.65995C162.00958,256.2,164.8926,264.408,170.2866,269.4557c3.03268,2.838,7.32494-.37237,6.754-3.54058a4.36954,4.36954,0,0,0-.03345-1.15365,74.87907,74.87907,0,0,1-.94794-14.09156C176.17386,246.541,177.12682,242.49044,177.27859,238.39116Z" transform="translate(-31.77603 -13.0708)" style="fill:#ef702b"/><path d="M295.18884,196.31862c-5.27563-4.33718-14.22217-3.0051-20.21725-1.3981a38.59609,38.59609,0,0,0-7.61031,2.93353c-.24793.06916-.49966.13553-.74436.20686-7.053,2.05634-16.76511,6.31087-17.66346,14.64568-.27926.30326-.55307.61384-.81714.93715-3.81848,4.67476-5.399,10.15731-6.67051,15.94272-1.32,6.00588-2.817,11.6547-5.94756,17.00538-2.9264,5.00173-6.54231,9.56987-9.34127,14.64949-2.59919,4.71688-4.94471,10.82088-3.91984,16.32271.9652,5.18141,4.95531,7.47974,9.49574,7.98553,6.489,2.12839,16.47882-1.61567,19.37331-6.92268a20.80362,20.80362,0,0,0,1.68065-4.93917q3.32034-5.28152,6.64058-10.56322c.69621-.57779,1.41816-1.12455,2.15866-1.63505,6.85637-4.72729,14.77871-7.63157,20.892-13.45767,6.33029-6.03286,9.39309-14.44436,5.38963-22.619-.67645-1.38114-1.46366-2.72623-2.23251-4.08135a16.41506,16.41506,0,0,1-.41416-4.51165c.31088-4.61885,5.68185-5.38076,8.85073-7.833C298.38163,205.66674,299.8811,200.1762,295.18884,196.31862Z" transform="translate(-31.77603 -13.0708)" style="fill:#fff"/><path d="M201.81379,150.73942c-5.0917-2.95065-13.03479-5.70094-18.951-4.294-5.62515,1.33768-11.41172,6.21091-15.47494,10.12725-3.97732,3.83356-6.7197,8.77059-5.4002,14.27583-1.41593,4.79595-2.11186,10.6283,2.60022,13.51973,4.56666,2.80213,9.07079,3.04746,13.04512-.68919,2.60541-2.44961,4.65469-5.57664,6.73547-8.46043,2.971-4.1175,6.93572-3.45864,11.41044-4.21762,5.09957-.865,10.75307-3.46078,12.17317-8.95137C209.23172,157.10233,205.84219,153.07388,201.81379,150.73942Z" transform="translate(-31.77603 -13.0708)" style="fill:#ef702b"/><path d="M193.03206,153.70807c-2.49967,1.69458-6.6094.39925-8.75937,2.34694-1.18126,1.07014-2.37873,2.85557-4.36363,3.25608-1.74741.3526-3.55278-.50807-3.954-1.74349a2.463,2.463,0,0,1,.25414-1.6309c.19579-.07859.32266-.2287.234-.426-.00645-.01435-.01013-.02863-.01623-.043.07064-.1439.14058-.28332.20347-.40993.12056-.24272-.09622-.41573-.37206-.4672.07449-2.44936,4.59863-4.63119,7.42577-5.50459C186.81622,148.11843,197.5775,150.62662,193.03206,153.70807Z" transform="translate(-31.77603 -13.0708)" style="fill:#e1582e"/><path d="M164.13171,213.2741a5.11238,5.11238,0,0,0-3.03043.47791c-1.68854.73215-2.75266,2.06077-4.93681,1.89824a6.58055,6.58055,0,0,1-3.6914-1.78726c-3.56353-3.27424-2.36775-8.2321-3.34046-12.30563-.96163-4.027-4.14379-7.17682-5.62944-11.01753-1.85641-4.79913-.84516-9.9557.1434-14.86224.18752-.93082-1.40531-.97237-1.76913-.22265a67.61509,67.61509,0,0,0,4.6212,67.41027c.448,1.1933.91544,2.38193,1.42436,3.56061a.63956.63956,0,0,0,.34992.33166c.41812.54047,1.76176.36173,1.69339-.39825-.76206-8.46663-1.48076-18.3563,6.215-25.01318a16.08858,16.08858,0,0,1,6.13119-3.34315c1.20312-.34012,2.79972-.467,3.67306-1.36989C167.40252,215.168,165.97489,213.59445,164.13171,213.2741Z" transform="translate(-31.77603 -13.0708)" style="fill:#e1582e"/><path d="M330.65185,149.80083c-4.86755-11.64542-17.87754-20.07724-31.47561-19.31815-16.1932.90393-26.48536,13.06929-29.01559,26.58673a1.33853,1.33853,0,0,0,.39011,1.17394c-.0399,2.413.44788,4.89933.09279,7.31353-.24637,1.67573,2.97114,2.84351,3.3893,1.10859a96.862,96.862,0,0,1,3.26261-10.739c.01-.02.02723-.03212.03628-.05305,8.02717-18.5797,35.09365-21.33835,50.43632-5.10308C328.72468,151.7826,331.2882,151.32346,330.65185,149.80083Z" transform="translate(-31.77603 -13.0708)" style="fill:#ef702b"/><path d="M276.89749,149.0799a1.63411,1.63411,0,0,0-.54592.16355c3.58219-8.03278,10.27777-14.5503,20.26684-16.50431a28.64087,28.64087,0,0,1,26.67091,9.47965C307.639,132.32626,286.49593,135.17385,276.89749,149.0799Z" transform="translate(-31.77603 -13.0708)" style="fill:#e1582e"/><path d="M213.33628,193.16777c-6.8672,0-6.88192,9.24529,0,9.24529C220.20348,202.41306,220.2182,193.16777,213.33628,193.16777Z" transform="translate(-31.77603 -13.0708)" style="fill:#4fba1e"/><path d="M338.25814,238.44191c-8.4756,0-8.49377,11.41067,0,11.41067C346.73374,249.85258,346.75191,238.44191,338.25814,238.44191Z" transform="translate(-31.77603 -13.0708)" style="fill:#4fba1e"/><path d="M258.50193,139.997c-8.4756,0-8.49377,11.41063,0,11.41063C266.97753,151.40761,266.9957,139.997,258.50193,139.997Z" transform="translate(-31.77603 -13.0708)" style="fill:#009245"/><path d="M254.20249,100.35563q7.64913,8.02093,15.29823,16.04178c1.1,1.15349,7.17416-5.03156,5.843-6.42738q-7.64909-8.02089-15.29823-16.04178C258.94551,92.77479,252.87139,98.95984,254.20249,100.35563Z" transform="translate(-31.77603 -13.0708)" style="fill:#4fba1e"/><path d="M226.85709,110.93653q-2.10085,19.47894-4.20165,38.95792c-.16214,1.50318,8.47194,1.98771,8.68632,0q2.10078-19.47894,4.20165-38.95792C235.7055,109.43335,227.07147,108.94882,226.85709,110.93653Z" transform="translate(-31.77603 -13.0708)" style="fill:#4fba1e"/><path d="M195.19707,278.36609c-.07644-1.83487-8.75679-1.69125-8.68632,0l.52646,12.63465c.07644,1.83492,8.75678,1.69129,8.68632,0Z" transform="translate(-31.77603 -13.0708)" style="fill:#009245"/><path d="M284.62742,236.04307c-3.72311.5654-7.34657.85545-4.81033-2.65019.54368-.75153-1.40847-.31535-1.63295-.22393a14.3435,14.3435,0,0,1-9.50835.55467,42.38153,42.38153,0,0,1,4.83095-.54739c3.07565-.15616.55412-1.28351-1.15609-1.21643q2.60718-.90562,5.21421-1.81125c2.00177-.6953-1.66471-1.08281-2.1912-1.05394-1.55446.08481-3.07978.2631-4.59437.48552q2.55108-1.10088,5.1023-2.20192c1.17451-.50683-2.93928-.924-3.53726-.76417a30.47481,30.47481,0,0,0-8.19459,3.512q-5.97687,2.57913-11.95373,5.15853c-.03326.00357-.065.00371-.09856.00756,1.60587-2.565,3.18109-5.15,4.75906-7.73285.95016.08551,1.92946.01732,2.25429-.39631.57158-.7276,1.16942-1.41947,1.78637-2.08411.66657-.01677,1.37025-.11946,1.566-.48017a11.35393,11.35393,0,0,1,2.13649-2.73474q7.85864-2.76264,15.71685-5.525c1.75832-.61805-.88116-1.00171-1.89084-1.0512a8.30476,8.30476,0,0,0-2.59906-.33239l-.12139.01855a28.21808,28.21808,0,0,0,7.20691-5.14643c.156-.15231-.07437-.28235-.4711-.38751a35.55044,35.55044,0,0,0,4.71727-5.24789c.45075-.61282-3.61383-1.08268-4.3435-.33528-.80431.82384-1.62951,1.61536-2.46255,2.39617-.77517-.40566-3.79584-.58932-4.23009.06282a44.94938,44.94938,0,0,1-7.768,8.88329l-.19493.10929c-.13939.07822-.19121.15176-.17829.22049-.21637.18572-.42133.38559-.64128.56691-.41335.113-.84266.20276-1.26908.29693a56.35407,56.35407,0,0,1,16.649-16.38287c.84981-.54656-.61571-.60072-.94026-.53268a12.30783,12.30783,0,0,0-1.98528.59221q1.99827-3.69528,3.99681-7.39056c.31466-.58162-1.82761-.10351-2.07972.14172l-3.237,3.14879a49.0023,49.0023,0,0,0,2.04-14.73424c-.00866-.60677-2.00218-.01938-2.18089.38683a27.69134,27.69134,0,0,1-1.37163,2.71645l.11465-1.35527c.04811-.56883-1.98734-.01443-2.18089.38683q-1.28751,2.6678-2.57473,5.33586a2.36062,2.36062,0,0,0-1.143.46092l-.01608-.13774c-.07506-.64306-1.99765-.01017-2.181.38669q-.265.57385-.53006,1.1477a17.95866,17.95866,0,0,1,1.44146-6.93362c.272-.64526-1.83791-.11726-2.07958.14173-4.32081,4.63135-4.9581,10.4071-4.9702,16.39454-.609-.09086-1.59309.157-1.734.60623q-.23466.7485-.46917,1.49713c.27314-2.3233.54766-4.64578.75908-6.97775.03368-.37156-.782-.25568-1.40943-.059a67.67541,67.67541,0,0,0-1.023-10.03787c-.1042-.58244-2.07655-.0987-2.18089.38683q-.67056,3.11793-1.34111,6.23612c-.443-.2484-2.004.09967-2.05937.55083-.005.03986-.00633.07959-.01114.11946l-.00247.00041.001.01484c-.176,1.45219-.30036,2.89956-.407,4.34831-.07354-.1519-.13567-.30242-.21334-.45515-.27919-.54986-2.34544-.08866-2.1945.5067a87.185,87.185,0,0,1,2.31684,29.78561c-1.27609,2.08687-2.60373,4.14047-3.896,6.21674a35.28335,35.28335,0,0,0-3.74594-5.24595c.34311-.12757.6142-.3148.62162-.55839a127.39879,127.39879,0,0,0-1.227-22.00974c-.08426-.58986-2.05662-.08481-2.18089.38669q-.20661.78334-.41308,1.5667-.37157-.93882-.74314-1.87751c-.23328-.58931-2.20728-.11753-2.1945.5067q.08207,3.9819.16427,7.96365a92.75661,92.75661,0,0,0-4.21428-11.67838c-.24881-.56553-2.299-.10832-2.1945.5067q.44148,2.60181.88294,5.20348-.87861-1.372-1.75694-2.74422c-.18283-.28566-1.12227-.15836-1.6933.11382q-1.61784-1.81248-3.2358-3.62483c-.3247-.36373-2.30241.03258-2.12976.60842q1.357,4.52565,2.714,9.05114c-.62465.12743-1.22262.42477-.97642.75785q1.11676,1.51082,2.23354,3.02149-.54354.41755-1.08735.83511c-.33322-.08675-2.18227.02721-1.99614.68251l.15231.53584a17.1634,17.1634,0,0,0-2.219-.704c-.32153-.07629-2.47589.43769-1.93125.78438q9.63646,6.1344,19.53385,11.83495c.40593.23383,1.42373-.09815,1.87956-.39452a32.81085,32.81085,0,0,1,4.29181,6.19653.43659.43659,0,0,0,.26985.18915c-4.71259,7.53036-9.56251,14.97123-14.48295,22.3655-1.47446-3.23992-3.10521-6.386-4.80924-9.48828a2.54888,2.54888,0,0,0,1.11952-.254c3.1525-2.29306,6.35765-4.52893,9.46395-6.88386,1.06632-.80829,2.49913-1.93812.80115-2.87275a2.06145,2.06145,0,0,0-1.895.43755q-1.06316.51055-2.12632,1.02123a31.19152,31.19152,0,0,1,4.22006-8.21438c.3559-.49323-.504-.5111-.79716-.46106-1.15073.19644-2.04315.46-2.168,1.16021.12921-.72513-1.92246-.1838-2.16728.26695l-.5676,1.04488a6.52843,6.52843,0,0,1,.33157-1.71392c.18819-.55509-1.95985-.34449-2.16728.26682q-.73181,2.15849-1.4636,4.31669a11.86836,11.86836,0,0,1,.15108-4.319c.16014-.7485-1.9072-.11849-2.16729.26682-3.17119,4.6983.85408,10.12035-1.023,15.11956q-2.55006-4.56955-5.42838-8.94584a23.67668,23.67668,0,0,1,1.44325-8.3256c.14819-.41006-.71908-.36209-.88473-.336a2.42967,2.42967,0,0,1-.54244-2.10349c-.02007-.38559-.69406-.28318-1.24777-.12152a15.83559,15.83559,0,0,1-2.48263-5.25531c-.17664-.61653-2.16123-.0976-2.1945.5067l-.37074,6.71752c-.63715-1.63776-1.21423-3.29889-1.72093-5.00346-.12152-.40855-.81971-.3049-1.3851-.10365q-.26147-.19652-.52278-.39315c-.43659-.32827-1.92727-.08647-2.11615.48855l-.233.70959a5.10182,5.10182,0,0,1-1.78156-2.62284c-.23671-.57364-2.31574-.09567-2.19449.5067a18.82877,18.82877,0,0,0,.512,1.95792q-.48043-.72994-.96115-1.45988c-.28662-.43536-2.32675.10378-2.12976.60842A8.38393,8.38393,0,0,0,205.928,226.942q.653.992,1.30634,1.98418-.40251-.06949-.805-.13884c-.51288-.16193-2.549.58382-1.79777.85833a14.61553,14.61553,0,0,1,5.98593,3.70759c4.159,4.60014-2.25691,1.20282-3.56984-.23534-.32731-.35851-2.29677.02474-2.12962.60856,2.70752,9.45721,15.38514,6.85966,20.06928,14.55072.19754.32442.86328.26489,1.41466.0844,1.86485,3.394,3.63665,6.84358,5.22217,10.40862a.51977.51977,0,0,0,.45419.24111q-11.92878,17.83429-24.67877,35.12134c-.40112.54092,3.6515,1.26853,4.3435.33541q12.09414-16.308,23.39855-33.14637a46.82057,46.82057,0,0,0,19.82954,2.15835c.16977.17733.34847.33349.52388.49721-1.29864.08028-2.69446.48457-2.50242.642l13.581,11.13677c.95841.77132,4.655-.07987,4.34363-.33528a45.48361,45.48361,0,0,1-3.56118-3.66373,3.44449,3.44449,0,0,0,2.19038-.60979,3.24372,3.24372,0,0,0,.36483-.42189c.91153.82342,4.68042-.02886,4.34185-.33624a15.16473,15.16473,0,0,0-4.65871-2.88278q4.71185-.126,9.42381-.2517c.5599-.015,3.45038-.54162,1.59254-1.0765a29.58329,29.58329,0,0,0-8.54334-1.09931c.65076-.2561,1.30221-.51549,1.94623-.78795a26.19461,26.19461,0,0,0,4.925-2.247c1.05683-.631-3.04651-1.06178-3.88945-.63647-1.15485.58258-2.33444,1.08818-3.50812,1.61206a16.88153,16.88153,0,0,1-5.97411,1.42786c.41363-.06819.82548-.1284,1.24681-.23122,1.60683-.392-.374-1.03-.99388-1.05409-.01842-.00068-.03684-.003-.05526-.00371q.4326-.14661.86548-.29321c.8494-.28786.65723-.62643.16813-.82947,1.79736-.54175,3.58193-1.12007,5.35015-1.77248l.051-.01182-.01045-.0022c.12029-.0444.24236-.08042.3625-.12537,1.15512-.43192-2.9298-.90425-3.53726-.76431-.16826.03877-.39618.085-.606.12867q1.28174-.82191,2.60758-1.58058,1.40814-.78046,2.81612-1.56106c1.01519-.56278-2.99523-1.118-3.88945-.6366q-1.48029.79675-2.92622,1.62209l-.96941.53749q.32765-.40992.6553-.8197a15.4027,15.4027,0,0,0,1.69825-2.12439c.42628-.64843-3.67308-1.1741-4.34364-.33528q-.84129,1.05243-1.68271,2.10487a13.30569,13.30569,0,0,1-5.2105,3.41162c-.38682.14351.03918.33486.73654.48772a15.0386,15.0386,0,0,0-3.192,1.51914,35.6072,35.6072,0,0,1-17.93746-2.203,2.253,2.253,0,0,0-.62271-.09581q7.83656-11.67474,15.34169-23.56681c4.662-.62038,9.6241,4.99921,12.99778,7.61064a42.65469,42.65469,0,0,0,5.15688,3.45437,9.10126,9.10126,0,0,0,3.65617,1.774c.04055.01609.07753.03657.11822.05251l.0176-.00989c.06227.01526.11011.03986.17348.05457.41061.09513,2.38406-.59935,1.6067-.903a26.92543,26.92543,0,0,1-4.0217-1.99174,6.71408,6.71408,0,0,1-.5988-.59151l3.72436.96583c.36593.095,2.44042-.496,1.93125-.78424-.36621-.20743-5.62495-3.45135-3.72724-4.33126.14888-.069.65736-.36923.39549-.58726a9.10147,9.10147,0,0,0,9.11286,1.87668c.35549-.10461,1.16681-.75124.32332-.80857a7.57358,7.57358,0,0,1-4.08657-1.09422l2.7346-.26641c.12839-.01251,1.51116-.32153,1.29616-.72266q-.20868-.3893-.41707-.7786a5.83883,5.83883,0,0,0,3.629-2.7878C285.7611,236.00046,284.70069,236.03208,284.62742,236.04307Z" transform="translate(-31.77603 -13.0708)" style="fill:#009245"/><path d="M264.09833,200.904l.20345.16854c.408.33789,2.14033.05594,2.12975-.60843-.06543-4.13661-.017-8.254,1.20379-11.99524a19.14318,19.14318,0,0,0,.29238,4.92512c.12029.64911,1.99325.01924,2.18089-.38683q.32147-.69612.64307-1.39211c.07753.64279,1.996.00673,2.18048-.38752q.44559-.95346.89146-1.90678a1.89165,1.89165,0,0,0,1.25726-.63q.45858-.95057.91731-1.90114a3.03676,3.03676,0,0,0,1.97675-.44443c.59151-.72678,1.11759-1.46222,1.61659-2.20962a48.33991,48.33991,0,0,1-2.7269,13.40151c-.25074.707,1.85166.08014,2.07972-.14159q.95655-.93057,1.9131-1.861-1.371,2.535-2.74188,5.07014c-.15286.28277.22324.31177.69337.24785-.05127.03478-.09306.06392-.12207.08551-.7775.57708-1.54016,1.16873-2.28838,1.78457a53.737,53.737,0,0,0-12.67955,15.03859c-.16166.06956-.32593.12743-.487.19891,2.13732-3.56159,4.26569-7.12882,6.34981-10.7245.40085-.69159-3.79735-1.27747-4.3435-.33528-.60732,1.04776-1.23224,2.08439-1.84369,3.12968q-.32578-2.40119-.65131-4.80236Q263.421,203.066,264.09833,200.904Zm-7.82179.27054c.0077-1.75159.06447-3.48118.1717-5.20871.60759-.03052,1.36558-.31974,1.436-.64705q.53508-2.488,1.07-4.97584c.17142,1.94431.26022,3.8966.26394,5.87693.00068.33679.59577.29239,1.15429.1453-.274,2.81378-.56017,5.62509-.91634,8.43089-.04949.39027.46353.41955,1.00583.2994l.07217.53227-.42023,1.34084c-.07217.23053.24015.32565.64595.32332q.36827,2.71439.7364,5.42878c.01238.091.09472.14764.20139.18984q-2.47191,4.19078-4.98477,8.35488a86.73022,86.73022,0,0,0-1.15224-19.48449C255.955,201.63724,256.27544,201.41854,256.27654,201.17454Zm-26.87079,16.3012c.41748-.106.74176-.29142.65832-.58532q-.2229-.784-.44566-1.5678a4.40606,4.40606,0,0,0,1.63515-.51811l4.02994,5.45189c.35466.47975,2.45967-.17637,2.065-.71029q-2.09972-2.84038-4.19915-5.6809c.6146-.1875,1.17533-.52567.94837-.66162q-.56148-.33631-1.12309-.67262a1.63548,1.63548,0,0,0-.8916-.108q-.27755-.37527-.55482-.75069c.2117-.11616.345-.2616.29184-.43907q-.98789-3.29484-1.97592-6.58968l2.42255,2.7137c.14241.1596.60457.16579,1.0633.081q1.37842,2.15313,2.757,4.30611c.2249.35122,1.52463.11079,1.97016-.2972a92.49078,92.49078,0,0,1,2.3167,9.46972c-.75454.06433-1.798.57955-1.48765.80527.68747.5,1.3172,1.056,1.96012,1.59941.00674.04069.01705.08015.02379.12084.02543.15465.20056.23108.43631.25458a34.74062,34.74062,0,0,1,2.52387,2.46916Q236.54138,221.947,229.40575,217.47574Zm13.65458,5.25146q-.13589-6.59093-.2719-13.18184a2.359,2.359,0,0,0,1.62745-.34655,127.26247,127.26247,0,0,1,.63825,15.41181C244.41451,223.95972,243.75591,223.32655,243.06033,222.7272Zm-9.67771,15.08409q.46786-1.37946.93559-2.75907a2.21652,2.21652,0,0,0,1.89235-.61585q.745-1.37163,1.49013-2.74339c.03533-.00014.06571.00714.10145.006a1.31851,1.31851,0,0,0,.26847-.05,31.9648,31.9648,0,0,0-3.28556,7.15947c-.10076.318.42325.36168.613.35453a9.42355,9.42355,0,0,0,3.40859-.71688A45.00836,45.00836,0,0,1,234.283,242.201q-1.17346.85365-2.34708,1.70718a16.55832,16.55832,0,0,0-.1739-5.45092C232.376,238.48707,233.26317,238.16389,233.38262,237.81129Zm-12.346-10.93758c.14888.20084.4722.20084.80954.138q.0468.90025.09375,1.80052c.01526.29363.75221.239.89834.21609-.62932.099-.8938,2.11312-.991,4.33855-.69187-.9903-1.40586-1.96754-2.12783-2.94052q.14063-2.5486.28139-5.09722C220.31584,225.84671,220.65524,226.35959,221.03657,226.87371Zm-10.45246,8.68713c1.68753.784,3.46812,1.00941,4.65623-.39136,1.84382-2.17374-1.58511-4.76772-4.49567-6.37441.48883-.13513.97779-.37625.75372-.71661l-.50876-.7727c.66657-.08591,1.52779-.32029,1.31376-.66437-.3405-.547-.63234-1.08391-.89889-1.6214.01581.00742.02667.01636.04262.02378.44167.20634,1.80217-.01361,1.98239-.56251q.094-.2862.18791-.57227a1.43466,1.43466,0,0,0,.44759.02461,64.08049,64.08049,0,0,0,3.36859,8.65455c.15616.32634.798.32208,1.34895.15245,1.02439,1.41947,2.05965,2.833,3.02589,4.28507.02021,1.20063.06282,2.12069.08248,2.32661.03066.32139.823.31108,1.44779.11354.84624,1.3315,1.71474,2.64979,2.51383,4.00864C221.2726,240.019,214.31588,239.61607,210.58411,235.56084Zm71.568,1.61124c-.12289.02048-1.5139.31617-1.296.72279q.1633.305.32676.6098-1.64094.1598-3.28158.31974a4.53492,4.53492,0,0,0-.99168.36332,4.31867,4.31867,0,0,0-2.387-1.538,2.44714,2.44714,0,0,0-3.019,1.85166.18106.18106,0,0,0,.05114.22173l-.30091.61846c-.22173.10282-.5845.31741-.39549.58739a14.35432,14.35432,0,0,0,1.9571,2.281q-.97491-.25279-1.95-.5056a4.54537,4.54537,0,0,0-1.35623.1497c-2.59852-1.89-5.048-3.99955-7.7044-5.93713a19.07217,19.07217,0,0,0-4.13193-2.46572q3.35505-1.44792,6.71037-2.89585c.10379.05691.20826.10956.31233.16414l-1.127.3915c-2.0371.70767,2.41266,1.0868,3.18508.89187.20235-.051.40209-.073.60375-.12069a18.226,18.226,0,0,0,11.09539.18709q-.66623.92088-1.33232,1.84163c-.20908.28909.0022.40469.28827.46573a35.33153,35.33153,0,0,1,4.06953.59289C281.07669,235.82216,287.59723,236.26728,282.15208,237.17208Z" transform="translate(-31.77603 -13.0708)" style="fill:#4fba1e"/><path d="M234.69567,113.16387c-.21911-2.811-1.87488-2.35906-4.23857-2.67239-.76316-.10117-3.56545,1.12-1.98535,1.32942a9.53,9.53,0,0,0,1.382.15862q2.34253.655,1.68315,2.57167c.23771,1.47286-.38514,3.44669-.56188,4.93044q-.58929,4.94556-1.17848,9.89121-1.17842,9.89126-2.35685,19.78246c-.11312.9492,2.9424.44095,3.03952-.37426q1.49574-12.55426,2.99142-25.1085C233.86441,120.36731,234.9541,116.47966,234.69567,113.16387Z" transform="translate(-31.77603 -13.0708)" style="fill:#009245"/><path d="M273.96707,109.67058q-3.15486-3.46241-6.30971-6.92485c-1.926-2.11384-3.97142-5.29969-6.37685-6.84253-1.42336-.91291-5.82995-.6631-5.05961,1.89945.2057.68436,2.21919.315,2.87959-.263l.13992.14286a9.2928,9.2928,0,0,0,1.5774,1.73125q1.77467,1.94759,3.54921,3.89521,3.35208,3.67885,6.70406,7.35771C271.66159,111.31473,274.54972,110.31,273.96707,109.67058Z" transform="translate(-31.77603 -13.0708)" style="fill:#009245"/><path d="M261.23149,141.35292c-1.46312-1.16652-3.95739-1.31512-5.26522.2431-.44187.52642.34774.66551.73674.67265a3.86661,3.86661,0,0,0,1.262-.20875c.02993.02285.05861.04507.09606.072.19669.14108.38293.30345.56719.46019a8.72329,8.72329,0,0,1,1.21361,1.203,3.41348,3.41348,0,0,1,.70435,3.38263c-.2806.74658,2.71747.48255,3.03957-.37425C264.42134,144.5805,262.89073,142.67574,261.23149,141.35292Z" transform="translate(-31.77603 -13.0708)" style="fill:#4fba1e"/><path d="M194.43285,279.79114c-.5334-2.57142-3.05687-1.64873-4.97811-1.99961-.38322-.07-1.78571.51995-.99267.66474,1.23346.22527,2.22474-.01176,3.35983.60651,1.45662.79352,1.1378,1.95469,1.22841,3.53017q.24067,4.18551.4814,8.37092c.021.36533,1.56627.12087,1.53889-.35532C194.87,287.12051,195.14116,283.20583,194.43285,279.79114Z" transform="translate(-31.77603 -13.0708)" style="fill:#4fba1e"/><path d="M304.40871,284.66871c-7.2084,12.27471-22.85249,11.717-35.06107,14.66145-8.17736,1.97233-16.66978,5.8419-20.978,13.27133a.88383.88383,0,0,0-.18117.27617l-.053.14334a20.252,20.252,0,0,0-1.11731,2.34017.3136.3136,0,0,0,.10931.38626l-2.99363,8.09725c-.5121,1.38519,3.86629.30171,4.375-.298a68.20639,68.20639,0,0,1,14.30675-13.07055c6.20628-4.09157,13.1187-6.16907,20.13941-8.38152,10.22093-3.22093,21.16042-7.69191,26.013-17.98725C309.47661,283.02827,305.05142,283.57425,304.40871,284.66871Z" transform="translate(-31.77603 -13.0708)" style="fill:#ef702b"/><path d="M314.18785,233.93849a19.08654,19.08654,0,0,1,2.20388-18.61044c1.96558-2.8208-5.93151-2.69934-6.82475-2.59157-3.54019.42683-7.7604,1.58974-9.89275,4.65a22.0551,22.0551,0,0,0-3.9356,13.41072c.1525,4.95315,2.32822,8.84653,4.92625,12.907,2.404,3.75718,4.90514,8.34962,2.017,12.597a16.31223,16.31223,0,0,1-1.78017,1.61451c-.86721-.0935-2.09219.05582-2.84123-.029-1.64131-.18595-3.27125-.45016-4.90172-.71245a17.57172,17.57172,0,0,0-11.96943,2.76334c-2.65644,1.92385-2.33386,4.00414,1.05008,4.54848,8.307,1.336,16.76256,1.75458,24.82173-1.16521,5.87174-2.12744,12.68752-6.28783,13.74637-13.01136C321.83407,243.79071,316.52383,239.45034,314.18785,233.93849Z" transform="translate(-31.77603 -13.0708)" style="fill:#fff"/><path d="M330.22191,171.85018c-4.28961-7.49161-10.33949-12.95887-19.41862-12.99912-7.82976-.0347-18.83331,2.99021-21.64885,11.31081-1.44983,4.28455,15.12143,2.65833,16.71749-2.05841a2.84555,2.84555,0,0,1,.24234-.46188c.167.10777.33979.20576.49855.32746a22.50852,22.50852,0,0,1,6.6817,7.78912C316.01381,180.50719,331.98005,174.92064,330.22191,171.85018Z" transform="translate(-31.77603 -13.0708)" style="fill:#fff"/><path d="M248.27547,153.96a24.4003,24.4003,0,0,1-13.57354,20.25585c-5.55151,2.75959-12.89366,5.87039-12.33375,13.28922.09813,1.30065,5.51045.4062,5.386-1.24345-.66551-8.81843,11.7242-10.70121,17.0516-15.40219a26.58062,26.58062,0,0,0,8.85568-18.14288C253.74293,151.62546,248.40676,152.20147,248.27547,153.96Z" transform="translate(-31.77603 -13.0708)" style="fill:#ef702b"/><path d="M187.1405,219.42955a2.7413,2.7413,0,0,0-2.29892-4.72682,4.98358,4.98358,0,0,0-3.409,1.65761,4.336,4.336,0,0,0-.83319,1.74734c-.754.4787-1.62006.76374-2.3849,1.23993-1.2.74706-2.472,2.3422-1.688,3.62656-.4571.746-.6351,1.59244.38375,2.05629a3.41422,3.41422,0,0,0,3.16391-.64815,3.48735,3.48735,0,0,0,.71217-1.27772,2.74913,2.74913,0,0,1,.38027-.595,13.96066,13.96066,0,0,0,3.66922-1.56352A6.14651,6.14651,0,0,0,187.1405,219.42955Z" transform="translate(-31.77603 -13.0708)" style="fill:#ef702b"/><path d="M185.789,216.81185c-.935,0-3.34591,1.36842-1.32023,1.36842C185.4037,218.18027,187.81463,216.81185,185.789,216.81185Z" transform="translate(-31.77603 -13.0708)" style="fill:#e1582e"/><path d="M166.10486,232.29005c-6.73746,1.97676-6.74064,8.97241-5.79164,14.76275.13062.79709,3.22315.177,3.07769-.71043-.68561-4.18334-1.64574-11.51782,3.79251-13.11344C169.25224,232.62193,167.371,231.91864,166.10486,232.29005Z" transform="translate(-31.77603 -13.0708)" style="fill:#e1582e"/><path d="M174.74023,253.64716a64.69038,64.69038,0,0,1,.07664-14.19778c.065-.59158-2.96645-.3023-3.07769.71052a65.08987,65.08987,0,0,0-.21641,12.78184c.37652,4.324,2.2205,9.137.702,13.34238-.27424.7594,2.73.483,3.03952-.3743C176.71883,261.88158,175.19305,257.74876,174.74023,253.64716Z" transform="translate(-31.77603 -13.0708)" style="fill:#e1582e"/><path d="M262.16324,305.17408c-.28489-.45353-1.65138-.09475-1.98727.02863a17.95045,17.95045,0,0,0-9.03175,7.05475c-.34326.524,1.06882.49007,1.24084.47117a2.48232,2.48232,0,0,0,1.79868-.84538,14.49041,14.49041,0,0,1,7.07079-5.74165C261.62011,306.00722,262.48149,305.68083,262.16324,305.17408Z" transform="translate(-31.77603 -13.0708)" style="fill:#e1582e"/></svg>